<?xml version="1.0" encoding="UTF-8"?>
<!--Generator: Symbolize-->
<!DOCTYPE svg
PUBLIC "-//W3C//DTD SVG 1.1//EN"
       "http://www.w3.org/Graphics/SVG/1.1/DTD/svg11.dtd">
<svg version="1.1" xmlns="http://www.w3.org/2000/svg" xmlns:xlink="http://www.w3.org/1999/xlink" viewBox="0 0 3300 2200">
 <!--glyph: "custom", point size: 100.0, template writer version: "Symbolize 1.0"-->
 <style>.SFSymbolsPreviewWireframe {fill:none;opacity:1.0;stroke:black;stroke-width:0.5}
</style>
 <g id="Notes">
  <rect height="2200" id="artboard" style="fill:white;opacity:1" width="3300" x="0" y="0"/>
  <line style="fill:none;stroke:black;opacity:1;stroke-width:0.5;" x1="263" x2="3036" y1="292" y2="292"/>
  <text style="stroke:none;fill:black;font-family:sans-serif;font-size:13;font-weight:bold;" transform="matrix(1 0 0 1 263 322)">Weight/Scale Variations</text>
  <text style="stroke:none;fill:black;font-family:sans-serif;font-size:13;text-anchor:middle;" transform="matrix(1 0 0 1 559.711 322)">Ultralight</text>
  <text style="stroke:none;fill:black;font-family:sans-serif;font-size:13;text-anchor:middle;" transform="matrix(1 0 0 1 856.422 322)">Thin</text>
  <text style="stroke:none;fill:black;font-family:sans-serif;font-size:13;text-anchor:middle;" transform="matrix(1 0 0 1 1153.13 322)">Light</text>
  <text style="stroke:none;fill:black;font-family:sans-serif;font-size:13;text-anchor:middle;" transform="matrix(1 0 0 1 1449.84 322)">Regular</text>
  <text style="stroke:none;fill:black;font-family:sans-serif;font-size:13;text-anchor:middle;" transform="matrix(1 0 0 1 1746.56 322)">Medium</text>
  <text style="stroke:none;fill:black;font-family:sans-serif;font-size:13;text-anchor:middle;" transform="matrix(1 0 0 1 2043.27 322)">Semibold</text>
  <text style="stroke:none;fill:black;font-family:sans-serif;font-size:13;text-anchor:middle;" transform="matrix(1 0 0 1 2339.98 322)">Bold</text>
  <text style="stroke:none;fill:black;font-family:sans-serif;font-size:13;text-anchor:middle;" transform="matrix(1 0 0 1 2636.69 322)">Heavy</text>
  <text style="stroke:none;fill:black;font-family:sans-serif;font-size:13;text-anchor:middle;" transform="matrix(1 0 0 1 2933.4 322)">Black</text>
  <line style="fill:none;stroke:black;opacity:1;stroke-width:0.5;" x1="263" x2="3036" y1="1903" y2="1903"/>
  <text style="stroke:none;fill:black;font-family:sans-serif;font-size:13;font-weight:bold;" transform="matrix(1 0 0 1 263 1953)">Design Variations</text>
  <text style="stroke:none;fill:black;font-family:sans-serif;font-size:13;" transform="matrix(1 0 0 1 263 1971)">Symbols are supported in up to nine weights and three scales.</text>
  <text style="stroke:none;fill:black;font-family:sans-serif;font-size:13;" transform="matrix(1 0 0 1 263 1989)">For optimal layout with text and other symbols, vertically align</text>
  <text style="stroke:none;fill:black;font-family:sans-serif;font-size:13;" transform="matrix(1 0 0 1 263 2007)">symbols with the adjacent text.</text>
  <text id="template-version" style="stroke:none;fill:black;font-family:sans-serif;font-size:13;text-anchor:end;" transform="matrix(1 0 0 1 3036 1933)">Template v.7.0</text>
  <text style="stroke:none;fill:black;font-family:sans-serif;font-size:13;text-anchor:end;" transform="matrix(1 0 0 1 3036 1951)">Requires Xcode 26 or greater</text>
  <text id="descriptive-name" style="stroke:none;fill:black;font-family:sans-serif;font-size:13;text-anchor:end;" transform="matrix(1 0 0 1 3036 1969)">Generated from celebrate,.party,.confetti</text>
  <text style="stroke:none;fill:black;font-family:sans-serif;font-size:13;text-anchor:end;" transform="matrix(1 0 0 1 3036 1987)">Typeset at 100.0 points</text>
  <text style="stroke:none;fill:black;font-family:sans-serif;font-size:13;" transform="matrix(1 0 0 1 263 726)">Small</text>
  <text style="stroke:none;fill:black;font-family:sans-serif;font-size:13;" transform="matrix(1 0 0 1 263 1156)">Medium</text>
  <text style="stroke:none;fill:black;font-family:sans-serif;font-size:13;" transform="matrix(1 0 0 1 263 1586)">Large</text>
 </g>
 <g id="Guides">
  <g id="H-reference" style="fill:#27AAE1;stroke:none;" transform="matrix(1 0 0 1 339 696)">
   <path d="M0.993654 0L3.63775 0L29.3281-67.1323L30.0303-67.1323L30.0303-70.459L28.1226-70.459ZM11.6885-24.4799L46.9815-24.4799L46.2315-26.7285L12.4385-26.7285ZM55.1196 0L57.7637 0L30.6382-70.459L29.4326-70.459L29.4326-67.1323Z"/>
  </g>
  <line id="Baseline-S" style="fill:none;stroke:#27AAE1;opacity:1;stroke-width:0.5;" x1="263" x2="3036" y1="696" y2="696"/>
  <line id="Capline-S" style="fill:none;stroke:#27AAE1;opacity:1;stroke-width:0.5;" x1="263" x2="3036" y1="625.541" y2="625.541"/>
  <g id="H-reference" style="fill:#27AAE1;stroke:none;" transform="matrix(1 0 0 1 339 1126)">
   <path d="M0.993654 0L3.63775 0L29.3281-67.1323L30.0303-67.1323L30.0303-70.459L28.1226-70.459ZM11.6885-24.4799L46.9815-24.4799L46.2315-26.7285L12.4385-26.7285ZM55.1196 0L57.7637 0L30.6382-70.459L29.4326-70.459L29.4326-67.1323Z"/>
  </g>
  <line id="Baseline-M" style="fill:none;stroke:#27AAE1;opacity:1;stroke-width:0.5;" x1="263" x2="3036" y1="1126" y2="1126"/>
  <line id="Capline-M" style="fill:none;stroke:#27AAE1;opacity:1;stroke-width:0.5;" x1="263" x2="3036" y1="1055.54" y2="1055.54"/>
  <g id="H-reference" style="fill:#27AAE1;stroke:none;" transform="matrix(1 0 0 1 339 1556)">
   <path d="M0.993654 0L3.63775 0L29.3281-67.1323L30.0303-67.1323L30.0303-70.459L28.1226-70.459ZM11.6885-24.4799L46.9815-24.4799L46.2315-26.7285L12.4385-26.7285ZM55.1196 0L57.7637 0L30.6382-70.459L29.4326-70.459L29.4326-67.1323Z"/>
  </g>
  <line id="Baseline-L" style="fill:none;stroke:#27AAE1;opacity:1;stroke-width:0.5;" x1="263" x2="3036" y1="1556" y2="1556"/>
  <line id="Capline-L" style="fill:none;stroke:#27AAE1;opacity:1;stroke-width:0.5;" x1="263" x2="3036" y1="1485.54" y2="1485.54"/>
  <line id="left-margin-Ultralight-S" style="fill:none;stroke:#00AEEF;stroke-width:0.5;opacity:1.0;" x1="520.482" x2="520.482" y1="600.541" y2="721.000"/>
  <line id="right-margin-Ultralight-S" style="fill:none;stroke:#00AEEF;stroke-width:0.5;opacity:1.0;" x1="598.941" x2="598.941" y1="600.541" y2="721.000"/>
  <line id="left-margin-Ultralight-M" style="fill:none;stroke:#00AEEF;stroke-width:0.5;opacity:1.0;" x1="520.481" x2="520.481" y1="1030.540" y2="1151.000"/>
  <line id="right-margin-Ultralight-M" style="fill:none;stroke:#00AEEF;stroke-width:0.5;opacity:1.0;" x1="598.941" x2="598.941" y1="1030.540" y2="1151.000"/>
  <line id="left-margin-Ultralight-L" style="fill:none;stroke:#00AEEF;stroke-width:0.5;opacity:1.0;" x1="520.481" x2="520.481" y1="1460.540" y2="1581.000"/>
  <line id="right-margin-Ultralight-L" style="fill:none;stroke:#00AEEF;stroke-width:0.5;opacity:1.0;" x1="598.941" x2="598.941" y1="1460.540" y2="1581.000"/>
  <line id="left-margin-Thin-S" style="fill:none;stroke:#00AEEF;stroke-width:0.5;opacity:1.0;" x1="817.193" x2="817.193" y1="600.541" y2="721.000"/>
  <line id="right-margin-Thin-S" style="fill:none;stroke:#00AEEF;stroke-width:0.5;opacity:1.0;" x1="895.652" x2="895.652" y1="600.541" y2="721.000"/>
  <line id="left-margin-Thin-M" style="fill:none;stroke:#00AEEF;stroke-width:0.5;opacity:1.0;" x1="817.192" x2="817.192" y1="1030.540" y2="1151.000"/>
  <line id="right-margin-Thin-M" style="fill:none;stroke:#00AEEF;stroke-width:0.5;opacity:1.0;" x1="895.652" x2="895.652" y1="1030.540" y2="1151.000"/>
  <line id="left-margin-Thin-L" style="fill:none;stroke:#00AEEF;stroke-width:0.5;opacity:1.0;" x1="817.192" x2="817.192" y1="1460.540" y2="1581.000"/>
  <line id="right-margin-Thin-L" style="fill:none;stroke:#00AEEF;stroke-width:0.5;opacity:1.0;" x1="895.652" x2="895.652" y1="1460.540" y2="1581.000"/>
  <line id="left-margin-Light-S" style="fill:none;stroke:#00AEEF;stroke-width:0.5;opacity:1.0;" x1="1113.901" x2="1113.901" y1="600.541" y2="721.000"/>
  <line id="right-margin-Light-S" style="fill:none;stroke:#00AEEF;stroke-width:0.5;opacity:1.0;" x1="1192.360" x2="1192.360" y1="600.541" y2="721.000"/>
  <line id="left-margin-Light-M" style="fill:none;stroke:#00AEEF;stroke-width:0.5;opacity:1.0;" x1="1113.900" x2="1113.900" y1="1030.540" y2="1151.000"/>
  <line id="right-margin-Light-M" style="fill:none;stroke:#00AEEF;stroke-width:0.5;opacity:1.0;" x1="1192.360" x2="1192.360" y1="1030.540" y2="1151.000"/>
  <line id="left-margin-Light-L" style="fill:none;stroke:#00AEEF;stroke-width:0.5;opacity:1.0;" x1="1113.900" x2="1113.900" y1="1460.540" y2="1581.000"/>
  <line id="right-margin-Light-L" style="fill:none;stroke:#00AEEF;stroke-width:0.5;opacity:1.0;" x1="1192.360" x2="1192.360" y1="1460.540" y2="1581.000"/>
  <line id="left-margin-Regular-S" style="fill:none;stroke:#00AEEF;stroke-width:0.5;opacity:1.0;" x1="1410.611" x2="1410.611" y1="600.541" y2="721.000"/>
  <line id="right-margin-Regular-S" style="fill:none;stroke:#00AEEF;stroke-width:0.5;opacity:1.0;" x1="1489.070" x2="1489.070" y1="600.541" y2="721.000"/>
  <line id="left-margin-Regular-M" style="fill:none;stroke:#00AEEF;stroke-width:0.5;opacity:1.0;" x1="1410.610" x2="1410.610" y1="1030.540" y2="1151.000"/>
  <line id="right-margin-Regular-M" style="fill:none;stroke:#00AEEF;stroke-width:0.5;opacity:1.0;" x1="1489.070" x2="1489.070" y1="1030.540" y2="1151.000"/>
  <line id="left-margin-Regular-L" style="fill:none;stroke:#00AEEF;stroke-width:0.5;opacity:1.0;" x1="1410.610" x2="1410.610" y1="1460.540" y2="1581.000"/>
  <line id="right-margin-Regular-L" style="fill:none;stroke:#00AEEF;stroke-width:0.5;opacity:1.0;" x1="1489.070" x2="1489.070" y1="1460.540" y2="1581.000"/>
  <line id="left-margin-Medium-S" style="fill:none;stroke:#00AEEF;stroke-width:0.5;opacity:1.0;" x1="1707.331" x2="1707.331" y1="600.541" y2="721.000"/>
  <line id="right-margin-Medium-S" style="fill:none;stroke:#00AEEF;stroke-width:0.5;opacity:1.0;" x1="1785.789" x2="1785.789" y1="600.541" y2="721.000"/>
  <line id="left-margin-Medium-M" style="fill:none;stroke:#00AEEF;stroke-width:0.5;opacity:1.0;" x1="1707.330" x2="1707.330" y1="1030.540" y2="1151.000"/>
  <line id="right-margin-Medium-M" style="fill:none;stroke:#00AEEF;stroke-width:0.5;opacity:1.0;" x1="1785.790" x2="1785.790" y1="1030.540" y2="1151.000"/>
  <line id="left-margin-Medium-L" style="fill:none;stroke:#00AEEF;stroke-width:0.5;opacity:1.0;" x1="1707.330" x2="1707.330" y1="1460.540" y2="1581.000"/>
  <line id="right-margin-Medium-L" style="fill:none;stroke:#00AEEF;stroke-width:0.5;opacity:1.0;" x1="1785.790" x2="1785.790" y1="1460.540" y2="1581.000"/>
  <line id="left-margin-Semibold-S" style="fill:none;stroke:#00AEEF;stroke-width:0.5;opacity:1.0;" x1="2004.041" x2="2004.041" y1="600.541" y2="721.000"/>
  <line id="right-margin-Semibold-S" style="fill:none;stroke:#00AEEF;stroke-width:0.5;opacity:1.0;" x1="2082.499" x2="2082.499" y1="600.541" y2="721.000"/>
  <line id="left-margin-Semibold-M" style="fill:none;stroke:#00AEEF;stroke-width:0.5;opacity:1.0;" x1="2004.040" x2="2004.040" y1="1030.540" y2="1151.000"/>
  <line id="right-margin-Semibold-M" style="fill:none;stroke:#00AEEF;stroke-width:0.5;opacity:1.0;" x1="2082.500" x2="2082.500" y1="1030.540" y2="1151.000"/>
  <line id="left-margin-Semibold-L" style="fill:none;stroke:#00AEEF;stroke-width:0.5;opacity:1.0;" x1="2004.040" x2="2004.040" y1="1460.540" y2="1581.000"/>
  <line id="right-margin-Semibold-L" style="fill:none;stroke:#00AEEF;stroke-width:0.5;opacity:1.0;" x1="2082.500" x2="2082.500" y1="1460.540" y2="1581.000"/>
  <line id="left-margin-Bold-S" style="fill:none;stroke:#00AEEF;stroke-width:0.5;opacity:1.0;" x1="2300.751" x2="2300.751" y1="600.541" y2="721.000"/>
  <line id="right-margin-Bold-S" style="fill:none;stroke:#00AEEF;stroke-width:0.5;opacity:1.0;" x1="2379.209" x2="2379.209" y1="600.541" y2="721.000"/>
  <line id="left-margin-Bold-M" style="fill:none;stroke:#00AEEF;stroke-width:0.5;opacity:1.0;" x1="2300.750" x2="2300.750" y1="1030.540" y2="1151.000"/>
  <line id="right-margin-Bold-M" style="fill:none;stroke:#00AEEF;stroke-width:0.5;opacity:1.0;" x1="2379.210" x2="2379.210" y1="1030.540" y2="1151.000"/>
  <line id="left-margin-Bold-L" style="fill:none;stroke:#00AEEF;stroke-width:0.5;opacity:1.0;" x1="2300.750" x2="2300.750" y1="1460.540" y2="1581.000"/>
  <line id="right-margin-Bold-L" style="fill:none;stroke:#00AEEF;stroke-width:0.5;opacity:1.0;" x1="2379.210" x2="2379.210" y1="1460.540" y2="1581.000"/>
  <line id="left-margin-Heavy-S" style="fill:none;stroke:#00AEEF;stroke-width:0.5;opacity:1.0;" x1="2597.461" x2="2597.461" y1="600.541" y2="721.000"/>
  <line id="right-margin-Heavy-S" style="fill:none;stroke:#00AEEF;stroke-width:0.5;opacity:1.0;" x1="2675.919" x2="2675.919" y1="600.541" y2="721.000"/>
  <line id="left-margin-Heavy-M" style="fill:none;stroke:#00AEEF;stroke-width:0.5;opacity:1.0;" x1="2597.460" x2="2597.460" y1="1030.540" y2="1151.000"/>
  <line id="right-margin-Heavy-M" style="fill:none;stroke:#00AEEF;stroke-width:0.5;opacity:1.0;" x1="2675.920" x2="2675.920" y1="1030.540" y2="1151.000"/>
  <line id="left-margin-Heavy-L" style="fill:none;stroke:#00AEEF;stroke-width:0.5;opacity:1.0;" x1="2597.460" x2="2597.460" y1="1460.540" y2="1581.000"/>
  <line id="right-margin-Heavy-L" style="fill:none;stroke:#00AEEF;stroke-width:0.5;opacity:1.0;" x1="2675.920" x2="2675.920" y1="1460.540" y2="1581.000"/>
  <line id="left-margin-Black-S" style="fill:none;stroke:#00AEEF;stroke-width:0.5;opacity:1.0;" x1="2894.171" x2="2894.171" y1="600.541" y2="721.000"/>
  <line id="right-margin-Black-S" style="fill:none;stroke:#00AEEF;stroke-width:0.5;opacity:1.0;" x1="2972.630" x2="2972.630" y1="600.541" y2="721.000"/>
  <line id="left-margin-Black-M" style="fill:none;stroke:#00AEEF;stroke-width:0.5;opacity:1.0;" x1="2894.170" x2="2894.170" y1="1030.540" y2="1151.000"/>
  <line id="right-margin-Black-M" style="fill:none;stroke:#00AEEF;stroke-width:0.5;opacity:1.0;" x1="2972.630" x2="2972.630" y1="1030.540" y2="1151.000"/>
  <line id="left-margin-Black-L" style="fill:none;stroke:#00AEEF;stroke-width:0.5;opacity:1.0;" x1="2894.170" x2="2894.170" y1="1460.540" y2="1581.000"/>
  <line id="right-margin-Black-L" style="fill:none;stroke:#00AEEF;stroke-width:0.5;opacity:1.0;" x1="2972.630" x2="2972.630" y1="1460.540" y2="1581.000"/>
 </g>
 <g id="Symbols">
  <g id="Ultralight-S" transform="matrix(2.935792 0 0 2.935792 524.482 625.541)">
   <path d="M13.8441 1.01419C14.3877 0.921285 14.9036 1.28657 14.9965 1.83008L14.9968 1.8315L14.9971 1.83331C15.0382 2.07975 15.0611 2.32978 15.0756 2.57898C15.1002 2.99932 15.1033 3.58736 14.9941 4.17685C14.8666 4.8654 14.5471 5.48501 14.2939 5.90029C14.1628 6.11527 14.0388 6.29272 13.9463 6.41797C13.8933 6.48972 13.8392 6.56071 13.7822 6.62941L13.7808 6.63118L13.7796 6.63259C13.4257 7.05543 12.796 7.11132 12.3731 6.75744C11.951 6.40413 11.8946 5.77595 12.2465 5.35313L12.2489 5.35024C12.3731 5.19512 12.4856 5.03037 12.589 4.86078C12.7872 4.53575 12.967 4.15698 13.0306 3.81326C13.0989 3.44432 13.102 3.03398 13.0822 2.69555C13.0719 2.51919 13.0553 2.34288 13.0285 2.16822L13.0281 2.16573L13.0279 2.1646C12.9362 1.6218 13.3012 1.10699 13.8441 1.01419Z" fill="black" stroke="none"/>
<path d="M19.0931 2.5565C19.6119 2.74327 19.8811 3.31524 19.6943 3.83404L19.245 5.08201C19.0582 5.60081 18.4862 5.86997 17.9674 5.6832C17.4486 5.49644 17.1794 4.92447 17.3662 4.40567L17.8155 3.1577C18.0023 2.6389 18.5743 2.36974 19.0931 2.5565Z" fill="black" stroke="none"/>
<path d="M21.8944 7.0429C22.141 7.53608 21.9411 8.13578 21.4479 8.38236L20.4494 8.88155C19.9562 9.12814 19.3565 8.92824 19.1099 8.43507C18.8633 7.94189 19.0632 7.34219 19.5564 7.0956L20.5548 6.59641C21.048 6.34982 21.6478 6.54972 21.8944 7.0429Z" fill="black" stroke="none"/>
<path d="M17.2144 6.78343C17.6043 7.17332 17.6043 7.80546 17.2144 8.19535L16.216 9.19373C15.8261 9.58362 15.1939 9.58362 14.804 9.19373C14.4141 8.80384 14.4141 8.1717 14.804 7.78181L15.8024 6.78343C16.1923 6.39353 16.8245 6.39353 17.2144 6.78343Z" fill="black" stroke="none"/>
<path d="M17.0085 10.9416C17.0318 10.3907 17.4973 9.96294 18.0482 9.98623L18.0494 9.98628L18.0509 9.98634L18.0547 9.98652C18.2401 9.99561 18.425 10.0152 18.6088 10.0398C18.9248 10.0821 19.3616 10.1596 19.808 10.3024C20.2301 10.4375 20.668 10.6538 20.9743 10.8176C21.1602 10.9169 21.344 11.0207 21.5235 11.1311L21.5265 11.133L21.5276 11.1336C21.9959 11.4247 22.1404 12.0407 21.8494 12.509C21.5584 12.9772 20.9431 13.121 20.4748 12.8304C20.3304 12.7415 20.1823 12.6584 20.0328 12.5785C19.7578 12.4314 19.4468 12.2833 19.1994 12.2042C18.9031 12.1093 18.591 12.052 18.3439 12.0189C18.2177 12.002 18.0909 11.9884 17.9638 11.9812L17.9623 11.9811C17.4123 11.9568 16.9853 11.4918 17.0085 10.9416Z" fill="black" stroke="none"/>
<path d="M6.55063 7.12548C7.04935 5.7519 8.80625 5.36167 9.8396 6.39498L17.6055 14.1605C18.6389 15.1938 18.2486 16.9507 16.875 17.4493L4.68249 21.8757C3.08955 22.454 1.54573 20.9103 2.12406 19.3174L6.55063 7.12548Z" fill="black" stroke="none"/>
  </g>
  <g id="Ultralight-M" transform="matrix(2.935833 0 0 2.935833 524.481 1055.540)">
   <path d="M13.8441 1.01419C14.3877 0.921285 14.9036 1.28657 14.9965 1.83008L14.9968 1.8315L14.9971 1.83331C15.0382 2.07975 15.0611 2.32978 15.0756 2.57898C15.1002 2.99932 15.1033 3.58736 14.9941 4.17685C14.8666 4.8654 14.5471 5.48501 14.2939 5.90029C14.1628 6.11527 14.0388 6.29272 13.9463 6.41797C13.8933 6.48972 13.8392 6.56071 13.7822 6.62941L13.7808 6.63118L13.7796 6.63259C13.4257 7.05543 12.796 7.11132 12.3731 6.75744C11.951 6.40413 11.8946 5.77595 12.2465 5.35313L12.2489 5.35024C12.3731 5.19512 12.4856 5.03037 12.589 4.86078C12.7872 4.53575 12.967 4.15698 13.0306 3.81326C13.0989 3.44432 13.102 3.03398 13.0822 2.69555C13.0719 2.51919 13.0553 2.34288 13.0285 2.16822L13.0281 2.16573L13.0279 2.1646C12.9362 1.6218 13.3012 1.10699 13.8441 1.01419Z" fill="black" stroke="none"/>
<path d="M19.0931 2.5565C19.6119 2.74327 19.8811 3.31524 19.6943 3.83404L19.245 5.08201C19.0582 5.60081 18.4862 5.86997 17.9674 5.6832C17.4486 5.49644 17.1794 4.92447 17.3662 4.40567L17.8155 3.1577C18.0023 2.6389 18.5743 2.36974 19.0931 2.5565Z" fill="black" stroke="none"/>
<path d="M21.8944 7.0429C22.141 7.53608 21.9411 8.13578 21.4479 8.38236L20.4494 8.88155C19.9562 9.12814 19.3565 8.92824 19.1099 8.43507C18.8633 7.94189 19.0632 7.34219 19.5564 7.0956L20.5548 6.59641C21.048 6.34982 21.6478 6.54972 21.8944 7.0429Z" fill="black" stroke="none"/>
<path d="M17.2144 6.78343C17.6043 7.17332 17.6043 7.80546 17.2144 8.19535L16.216 9.19373C15.8261 9.58362 15.1939 9.58362 14.804 9.19373C14.4141 8.80384 14.4141 8.1717 14.804 7.78181L15.8024 6.78343C16.1923 6.39353 16.8245 6.39353 17.2144 6.78343Z" fill="black" stroke="none"/>
<path d="M17.0085 10.9416C17.0318 10.3907 17.4973 9.96294 18.0482 9.98623L18.0494 9.98628L18.0509 9.98634L18.0547 9.98652C18.2401 9.99561 18.425 10.0152 18.6088 10.0398C18.9248 10.0821 19.3616 10.1596 19.808 10.3024C20.2301 10.4375 20.668 10.6538 20.9743 10.8176C21.1602 10.9169 21.344 11.0207 21.5235 11.1311L21.5265 11.133L21.5276 11.1336C21.9959 11.4247 22.1404 12.0407 21.8494 12.509C21.5584 12.9772 20.9431 13.121 20.4748 12.8304C20.3304 12.7415 20.1823 12.6584 20.0328 12.5785C19.7578 12.4314 19.4468 12.2833 19.1994 12.2042C18.9031 12.1093 18.591 12.052 18.3439 12.0189C18.2177 12.002 18.0909 11.9884 17.9638 11.9812L17.9623 11.9811C17.4123 11.9568 16.9853 11.4918 17.0085 10.9416Z" fill="black" stroke="none"/>
<path d="M6.55063 7.12548C7.04935 5.7519 8.80625 5.36167 9.8396 6.39498L17.6055 14.1605C18.6389 15.1938 18.2486 16.9507 16.875 17.4493L4.68249 21.8757C3.08955 22.454 1.54573 20.9103 2.12406 19.3174L6.55063 7.12548Z" fill="black" stroke="none"/>
  </g>
  <g id="Ultralight-L" transform="matrix(2.935833 0 0 2.935833 524.481 1485.540)">
   <path d="M13.8441 1.01419C14.3877 0.921285 14.9036 1.28657 14.9965 1.83008L14.9968 1.8315L14.9971 1.83331C15.0382 2.07975 15.0611 2.32978 15.0756 2.57898C15.1002 2.99932 15.1033 3.58736 14.9941 4.17685C14.8666 4.8654 14.5471 5.48501 14.2939 5.90029C14.1628 6.11527 14.0388 6.29272 13.9463 6.41797C13.8933 6.48972 13.8392 6.56071 13.7822 6.62941L13.7808 6.63118L13.7796 6.63259C13.4257 7.05543 12.796 7.11132 12.3731 6.75744C11.951 6.40413 11.8946 5.77595 12.2465 5.35313L12.2489 5.35024C12.3731 5.19512 12.4856 5.03037 12.589 4.86078C12.7872 4.53575 12.967 4.15698 13.0306 3.81326C13.0989 3.44432 13.102 3.03398 13.0822 2.69555C13.0719 2.51919 13.0553 2.34288 13.0285 2.16822L13.0281 2.16573L13.0279 2.1646C12.9362 1.6218 13.3012 1.10699 13.8441 1.01419Z" fill="black" stroke="none"/>
<path d="M19.0931 2.5565C19.6119 2.74327 19.8811 3.31524 19.6943 3.83404L19.245 5.08201C19.0582 5.60081 18.4862 5.86997 17.9674 5.6832C17.4486 5.49644 17.1794 4.92447 17.3662 4.40567L17.8155 3.1577C18.0023 2.6389 18.5743 2.36974 19.0931 2.5565Z" fill="black" stroke="none"/>
<path d="M21.8944 7.0429C22.141 7.53608 21.9411 8.13578 21.4479 8.38236L20.4494 8.88155C19.9562 9.12814 19.3565 8.92824 19.1099 8.43507C18.8633 7.94189 19.0632 7.34219 19.5564 7.0956L20.5548 6.59641C21.048 6.34982 21.6478 6.54972 21.8944 7.0429Z" fill="black" stroke="none"/>
<path d="M17.2144 6.78343C17.6043 7.17332 17.6043 7.80546 17.2144 8.19535L16.216 9.19373C15.8261 9.58362 15.1939 9.58362 14.804 9.19373C14.4141 8.80384 14.4141 8.1717 14.804 7.78181L15.8024 6.78343C16.1923 6.39353 16.8245 6.39353 17.2144 6.78343Z" fill="black" stroke="none"/>
<path d="M17.0085 10.9416C17.0318 10.3907 17.4973 9.96294 18.0482 9.98623L18.0494 9.98628L18.0509 9.98634L18.0547 9.98652C18.2401 9.99561 18.425 10.0152 18.6088 10.0398C18.9248 10.0821 19.3616 10.1596 19.808 10.3024C20.2301 10.4375 20.668 10.6538 20.9743 10.8176C21.1602 10.9169 21.344 11.0207 21.5235 11.1311L21.5265 11.133L21.5276 11.1336C21.9959 11.4247 22.1404 12.0407 21.8494 12.509C21.5584 12.9772 20.9431 13.121 20.4748 12.8304C20.3304 12.7415 20.1823 12.6584 20.0328 12.5785C19.7578 12.4314 19.4468 12.2833 19.1994 12.2042C18.9031 12.1093 18.591 12.052 18.3439 12.0189C18.2177 12.002 18.0909 11.9884 17.9638 11.9812L17.9623 11.9811C17.4123 11.9568 16.9853 11.4918 17.0085 10.9416Z" fill="black" stroke="none"/>
<path d="M6.55063 7.12548C7.04935 5.7519 8.80625 5.36167 9.8396 6.39498L17.6055 14.1605C18.6389 15.1938 18.2486 16.9507 16.875 17.4493L4.68249 21.8757C3.08955 22.454 1.54573 20.9103 2.12406 19.3174L6.55063 7.12548Z" fill="black" stroke="none"/>
  </g>
  <g id="Thin-S" transform="matrix(2.935792 0 0 2.935792 821.193 625.541)">
   <path d="M13.8441 1.01419C14.3877 0.921285 14.9036 1.28657 14.9965 1.83008L14.9968 1.8315L14.9971 1.83331C15.0382 2.07975 15.0611 2.32978 15.0756 2.57898C15.1002 2.99932 15.1033 3.58736 14.9941 4.17685C14.8666 4.8654 14.5471 5.48501 14.2939 5.90029C14.1628 6.11527 14.0388 6.29272 13.9463 6.41797C13.8933 6.48972 13.8392 6.56071 13.7822 6.62941L13.7808 6.63118L13.7796 6.63259C13.4257 7.05543 12.796 7.11132 12.3731 6.75744C11.951 6.40413 11.8946 5.77595 12.2465 5.35313L12.2489 5.35024C12.3731 5.19512 12.4856 5.03037 12.589 4.86078C12.7872 4.53575 12.967 4.15698 13.0306 3.81326C13.0989 3.44432 13.102 3.03398 13.0822 2.69555C13.0719 2.51919 13.0553 2.34288 13.0285 2.16822L13.0281 2.16573L13.0279 2.1646C12.9362 1.6218 13.3012 1.10699 13.8441 1.01419Z" fill="black" stroke="none"/>
<path d="M19.0931 2.5565C19.6119 2.74327 19.8811 3.31524 19.6943 3.83404L19.245 5.08201C19.0582 5.60081 18.4862 5.86997 17.9674 5.6832C17.4486 5.49644 17.1794 4.92447 17.3662 4.40567L17.8155 3.1577C18.0023 2.6389 18.5743 2.36974 19.0931 2.5565Z" fill="black" stroke="none"/>
<path d="M21.8944 7.0429C22.141 7.53608 21.9411 8.13578 21.4479 8.38236L20.4494 8.88155C19.9562 9.12814 19.3565 8.92824 19.1099 8.43507C18.8633 7.94189 19.0632 7.34219 19.5564 7.0956L20.5548 6.59641C21.048 6.34982 21.6478 6.54972 21.8944 7.0429Z" fill="black" stroke="none"/>
<path d="M17.2144 6.78343C17.6043 7.17332 17.6043 7.80546 17.2144 8.19535L16.216 9.19373C15.8261 9.58362 15.1939 9.58362 14.804 9.19373C14.4141 8.80384 14.4141 8.1717 14.804 7.78181L15.8024 6.78343C16.1923 6.39353 16.8245 6.39353 17.2144 6.78343Z" fill="black" stroke="none"/>
<path d="M17.0085 10.9416C17.0318 10.3907 17.4973 9.96294 18.0482 9.98623L18.0494 9.98628L18.0509 9.98634L18.0547 9.98652C18.2401 9.99561 18.425 10.0152 18.6088 10.0398C18.9248 10.0821 19.3616 10.1596 19.808 10.3024C20.2301 10.4375 20.668 10.6538 20.9743 10.8176C21.1602 10.9169 21.344 11.0207 21.5235 11.1311L21.5265 11.133L21.5276 11.1336C21.9959 11.4247 22.1404 12.0407 21.8494 12.509C21.5584 12.9772 20.9431 13.121 20.4748 12.8304C20.3304 12.7415 20.1823 12.6584 20.0328 12.5785C19.7578 12.4314 19.4468 12.2833 19.1994 12.2042C18.9031 12.1093 18.591 12.052 18.3439 12.0189C18.2177 12.002 18.0909 11.9884 17.9638 11.9812L17.9623 11.9811C17.4123 11.9568 16.9853 11.4918 17.0085 10.9416Z" fill="black" stroke="none"/>
<path d="M6.55063 7.12548C7.04935 5.7519 8.80625 5.36167 9.8396 6.39498L17.6055 14.1605C18.6389 15.1938 18.2486 16.9507 16.875 17.4493L4.68249 21.8757C3.08955 22.454 1.54573 20.9103 2.12406 19.3174L6.55063 7.12548Z" fill="black" stroke="none"/>
  </g>
  <g id="Thin-M" transform="matrix(2.935833 0 0 2.935833 821.192 1055.540)">
   <path d="M13.8441 1.01419C14.3877 0.921285 14.9036 1.28657 14.9965 1.83008L14.9968 1.8315L14.9971 1.83331C15.0382 2.07975 15.0611 2.32978 15.0756 2.57898C15.1002 2.99932 15.1033 3.58736 14.9941 4.17685C14.8666 4.8654 14.5471 5.48501 14.2939 5.90029C14.1628 6.11527 14.0388 6.29272 13.9463 6.41797C13.8933 6.48972 13.8392 6.56071 13.7822 6.62941L13.7808 6.63118L13.7796 6.63259C13.4257 7.05543 12.796 7.11132 12.3731 6.75744C11.951 6.40413 11.8946 5.77595 12.2465 5.35313L12.2489 5.35024C12.3731 5.19512 12.4856 5.03037 12.589 4.86078C12.7872 4.53575 12.967 4.15698 13.0306 3.81326C13.0989 3.44432 13.102 3.03398 13.0822 2.69555C13.0719 2.51919 13.0553 2.34288 13.0285 2.16822L13.0281 2.16573L13.0279 2.1646C12.9362 1.6218 13.3012 1.10699 13.8441 1.01419Z" fill="black" stroke="none"/>
<path d="M19.0931 2.5565C19.6119 2.74327 19.8811 3.31524 19.6943 3.83404L19.245 5.08201C19.0582 5.60081 18.4862 5.86997 17.9674 5.6832C17.4486 5.49644 17.1794 4.92447 17.3662 4.40567L17.8155 3.1577C18.0023 2.6389 18.5743 2.36974 19.0931 2.5565Z" fill="black" stroke="none"/>
<path d="M21.8944 7.0429C22.141 7.53608 21.9411 8.13578 21.4479 8.38236L20.4494 8.88155C19.9562 9.12814 19.3565 8.92824 19.1099 8.43507C18.8633 7.94189 19.0632 7.34219 19.5564 7.0956L20.5548 6.59641C21.048 6.34982 21.6478 6.54972 21.8944 7.0429Z" fill="black" stroke="none"/>
<path d="M17.2144 6.78343C17.6043 7.17332 17.6043 7.80546 17.2144 8.19535L16.216 9.19373C15.8261 9.58362 15.1939 9.58362 14.804 9.19373C14.4141 8.80384 14.4141 8.1717 14.804 7.78181L15.8024 6.78343C16.1923 6.39353 16.8245 6.39353 17.2144 6.78343Z" fill="black" stroke="none"/>
<path d="M17.0085 10.9416C17.0318 10.3907 17.4973 9.96294 18.0482 9.98623L18.0494 9.98628L18.0509 9.98634L18.0547 9.98652C18.2401 9.99561 18.425 10.0152 18.6088 10.0398C18.9248 10.0821 19.3616 10.1596 19.808 10.3024C20.2301 10.4375 20.668 10.6538 20.9743 10.8176C21.1602 10.9169 21.344 11.0207 21.5235 11.1311L21.5265 11.133L21.5276 11.1336C21.9959 11.4247 22.1404 12.0407 21.8494 12.509C21.5584 12.9772 20.9431 13.121 20.4748 12.8304C20.3304 12.7415 20.1823 12.6584 20.0328 12.5785C19.7578 12.4314 19.4468 12.2833 19.1994 12.2042C18.9031 12.1093 18.591 12.052 18.3439 12.0189C18.2177 12.002 18.0909 11.9884 17.9638 11.9812L17.9623 11.9811C17.4123 11.9568 16.9853 11.4918 17.0085 10.9416Z" fill="black" stroke="none"/>
<path d="M6.55063 7.12548C7.04935 5.7519 8.80625 5.36167 9.8396 6.39498L17.6055 14.1605C18.6389 15.1938 18.2486 16.9507 16.875 17.4493L4.68249 21.8757C3.08955 22.454 1.54573 20.9103 2.12406 19.3174L6.55063 7.12548Z" fill="black" stroke="none"/>
  </g>
  <g id="Thin-L" transform="matrix(2.935833 0 0 2.935833 821.192 1485.540)">
   <path d="M13.8441 1.01419C14.3877 0.921285 14.9036 1.28657 14.9965 1.83008L14.9968 1.8315L14.9971 1.83331C15.0382 2.07975 15.0611 2.32978 15.0756 2.57898C15.1002 2.99932 15.1033 3.58736 14.9941 4.17685C14.8666 4.8654 14.5471 5.48501 14.2939 5.90029C14.1628 6.11527 14.0388 6.29272 13.9463 6.41797C13.8933 6.48972 13.8392 6.56071 13.7822 6.62941L13.7808 6.63118L13.7796 6.63259C13.4257 7.05543 12.796 7.11132 12.3731 6.75744C11.951 6.40413 11.8946 5.77595 12.2465 5.35313L12.2489 5.35024C12.3731 5.19512 12.4856 5.03037 12.589 4.86078C12.7872 4.53575 12.967 4.15698 13.0306 3.81326C13.0989 3.44432 13.102 3.03398 13.0822 2.69555C13.0719 2.51919 13.0553 2.34288 13.0285 2.16822L13.0281 2.16573L13.0279 2.1646C12.9362 1.6218 13.3012 1.10699 13.8441 1.01419Z" fill="black" stroke="none"/>
<path d="M19.0931 2.5565C19.6119 2.74327 19.8811 3.31524 19.6943 3.83404L19.245 5.08201C19.0582 5.60081 18.4862 5.86997 17.9674 5.6832C17.4486 5.49644 17.1794 4.92447 17.3662 4.40567L17.8155 3.1577C18.0023 2.6389 18.5743 2.36974 19.0931 2.5565Z" fill="black" stroke="none"/>
<path d="M21.8944 7.0429C22.141 7.53608 21.9411 8.13578 21.4479 8.38236L20.4494 8.88155C19.9562 9.12814 19.3565 8.92824 19.1099 8.43507C18.8633 7.94189 19.0632 7.34219 19.5564 7.0956L20.5548 6.59641C21.048 6.34982 21.6478 6.54972 21.8944 7.0429Z" fill="black" stroke="none"/>
<path d="M17.2144 6.78343C17.6043 7.17332 17.6043 7.80546 17.2144 8.19535L16.216 9.19373C15.8261 9.58362 15.1939 9.58362 14.804 9.19373C14.4141 8.80384 14.4141 8.1717 14.804 7.78181L15.8024 6.78343C16.1923 6.39353 16.8245 6.39353 17.2144 6.78343Z" fill="black" stroke="none"/>
<path d="M17.0085 10.9416C17.0318 10.3907 17.4973 9.96294 18.0482 9.98623L18.0494 9.98628L18.0509 9.98634L18.0547 9.98652C18.2401 9.99561 18.425 10.0152 18.6088 10.0398C18.9248 10.0821 19.3616 10.1596 19.808 10.3024C20.2301 10.4375 20.668 10.6538 20.9743 10.8176C21.1602 10.9169 21.344 11.0207 21.5235 11.1311L21.5265 11.133L21.5276 11.1336C21.9959 11.4247 22.1404 12.0407 21.8494 12.509C21.5584 12.9772 20.9431 13.121 20.4748 12.8304C20.3304 12.7415 20.1823 12.6584 20.0328 12.5785C19.7578 12.4314 19.4468 12.2833 19.1994 12.2042C18.9031 12.1093 18.591 12.052 18.3439 12.0189C18.2177 12.002 18.0909 11.9884 17.9638 11.9812L17.9623 11.9811C17.4123 11.9568 16.9853 11.4918 17.0085 10.9416Z" fill="black" stroke="none"/>
<path d="M6.55063 7.12548C7.04935 5.7519 8.80625 5.36167 9.8396 6.39498L17.6055 14.1605C18.6389 15.1938 18.2486 16.9507 16.875 17.4493L4.68249 21.8757C3.08955 22.454 1.54573 20.9103 2.12406 19.3174L6.55063 7.12548Z" fill="black" stroke="none"/>
  </g>
  <g id="Light-S" transform="matrix(2.935792 0 0 2.935792 1117.901 625.541)">
   <path d="M13.8441 1.01419C14.3877 0.921285 14.9036 1.28657 14.9965 1.83008L14.9968 1.8315L14.9971 1.83331C15.0382 2.07975 15.0611 2.32978 15.0756 2.57898C15.1002 2.99932 15.1033 3.58736 14.9941 4.17685C14.8666 4.8654 14.5471 5.48501 14.2939 5.90029C14.1628 6.11527 14.0388 6.29272 13.9463 6.41797C13.8933 6.48972 13.8392 6.56071 13.7822 6.62941L13.7808 6.63118L13.7796 6.63259C13.4257 7.05543 12.796 7.11132 12.3731 6.75744C11.951 6.40413 11.8946 5.77595 12.2465 5.35313L12.2489 5.35024C12.3731 5.19512 12.4856 5.03037 12.589 4.86078C12.7872 4.53575 12.967 4.15698 13.0306 3.81326C13.0989 3.44432 13.102 3.03398 13.0822 2.69555C13.0719 2.51919 13.0553 2.34288 13.0285 2.16822L13.0281 2.16573L13.0279 2.1646C12.9362 1.6218 13.3012 1.10699 13.8441 1.01419Z" fill="black" stroke="none"/>
<path d="M19.0931 2.5565C19.6119 2.74327 19.8811 3.31524 19.6943 3.83404L19.245 5.08201C19.0582 5.60081 18.4862 5.86997 17.9674 5.6832C17.4486 5.49644 17.1794 4.92447 17.3662 4.40567L17.8155 3.1577C18.0023 2.6389 18.5743 2.36974 19.0931 2.5565Z" fill="black" stroke="none"/>
<path d="M21.8944 7.0429C22.141 7.53608 21.9411 8.13578 21.4479 8.38236L20.4494 8.88155C19.9562 9.12814 19.3565 8.92824 19.1099 8.43507C18.8633 7.94189 19.0632 7.34219 19.5564 7.0956L20.5548 6.59641C21.048 6.34982 21.6478 6.54972 21.8944 7.0429Z" fill="black" stroke="none"/>
<path d="M17.2144 6.78343C17.6043 7.17332 17.6043 7.80546 17.2144 8.19535L16.216 9.19373C15.8261 9.58362 15.1939 9.58362 14.804 9.19373C14.4141 8.80384 14.4141 8.1717 14.804 7.78181L15.8024 6.78343C16.1923 6.39353 16.8245 6.39353 17.2144 6.78343Z" fill="black" stroke="none"/>
<path d="M17.0085 10.9416C17.0318 10.3907 17.4973 9.96294 18.0482 9.98623L18.0494 9.98628L18.0509 9.98634L18.0547 9.98652C18.2401 9.99561 18.425 10.0152 18.6088 10.0398C18.9248 10.0821 19.3616 10.1596 19.808 10.3024C20.2301 10.4375 20.668 10.6538 20.9743 10.8176C21.1602 10.9169 21.344 11.0207 21.5235 11.1311L21.5265 11.133L21.5276 11.1336C21.9959 11.4247 22.1404 12.0407 21.8494 12.509C21.5584 12.9772 20.9431 13.121 20.4748 12.8304C20.3304 12.7415 20.1823 12.6584 20.0328 12.5785C19.7578 12.4314 19.4468 12.2833 19.1994 12.2042C18.9031 12.1093 18.591 12.052 18.3439 12.0189C18.2177 12.002 18.0909 11.9884 17.9638 11.9812L17.9623 11.9811C17.4123 11.9568 16.9853 11.4918 17.0085 10.9416Z" fill="black" stroke="none"/>
<path d="M6.55063 7.12548C7.04935 5.7519 8.80625 5.36167 9.8396 6.39498L17.6055 14.1605C18.6389 15.1938 18.2486 16.9507 16.875 17.4493L4.68249 21.8757C3.08955 22.454 1.54573 20.9103 2.12406 19.3174L6.55063 7.12548Z" fill="black" stroke="none"/>
  </g>
  <g id="Light-M" transform="matrix(2.935833 0 0 2.935833 1117.900 1055.540)">
   <path d="M13.8441 1.01419C14.3877 0.921285 14.9036 1.28657 14.9965 1.83008L14.9968 1.8315L14.9971 1.83331C15.0382 2.07975 15.0611 2.32978 15.0756 2.57898C15.1002 2.99932 15.1033 3.58736 14.9941 4.17685C14.8666 4.8654 14.5471 5.48501 14.2939 5.90029C14.1628 6.11527 14.0388 6.29272 13.9463 6.41797C13.8933 6.48972 13.8392 6.56071 13.7822 6.62941L13.7808 6.63118L13.7796 6.63259C13.4257 7.05543 12.796 7.11132 12.3731 6.75744C11.951 6.40413 11.8946 5.77595 12.2465 5.35313L12.2489 5.35024C12.3731 5.19512 12.4856 5.03037 12.589 4.86078C12.7872 4.53575 12.967 4.15698 13.0306 3.81326C13.0989 3.44432 13.102 3.03398 13.0822 2.69555C13.0719 2.51919 13.0553 2.34288 13.0285 2.16822L13.0281 2.16573L13.0279 2.1646C12.9362 1.6218 13.3012 1.10699 13.8441 1.01419Z" fill="black" stroke="none"/>
<path d="M19.0931 2.5565C19.6119 2.74327 19.8811 3.31524 19.6943 3.83404L19.245 5.08201C19.0582 5.60081 18.4862 5.86997 17.9674 5.6832C17.4486 5.49644 17.1794 4.92447 17.3662 4.40567L17.8155 3.1577C18.0023 2.6389 18.5743 2.36974 19.0931 2.5565Z" fill="black" stroke="none"/>
<path d="M21.8944 7.0429C22.141 7.53608 21.9411 8.13578 21.4479 8.38236L20.4494 8.88155C19.9562 9.12814 19.3565 8.92824 19.1099 8.43507C18.8633 7.94189 19.0632 7.34219 19.5564 7.0956L20.5548 6.59641C21.048 6.34982 21.6478 6.54972 21.8944 7.0429Z" fill="black" stroke="none"/>
<path d="M17.2144 6.78343C17.6043 7.17332 17.6043 7.80546 17.2144 8.19535L16.216 9.19373C15.8261 9.58362 15.1939 9.58362 14.804 9.19373C14.4141 8.80384 14.4141 8.1717 14.804 7.78181L15.8024 6.78343C16.1923 6.39353 16.8245 6.39353 17.2144 6.78343Z" fill="black" stroke="none"/>
<path d="M17.0085 10.9416C17.0318 10.3907 17.4973 9.96294 18.0482 9.98623L18.0494 9.98628L18.0509 9.98634L18.0547 9.98652C18.2401 9.99561 18.425 10.0152 18.6088 10.0398C18.9248 10.0821 19.3616 10.1596 19.808 10.3024C20.2301 10.4375 20.668 10.6538 20.9743 10.8176C21.1602 10.9169 21.344 11.0207 21.5235 11.1311L21.5265 11.133L21.5276 11.1336C21.9959 11.4247 22.1404 12.0407 21.8494 12.509C21.5584 12.9772 20.9431 13.121 20.4748 12.8304C20.3304 12.7415 20.1823 12.6584 20.0328 12.5785C19.7578 12.4314 19.4468 12.2833 19.1994 12.2042C18.9031 12.1093 18.591 12.052 18.3439 12.0189C18.2177 12.002 18.0909 11.9884 17.9638 11.9812L17.9623 11.9811C17.4123 11.9568 16.9853 11.4918 17.0085 10.9416Z" fill="black" stroke="none"/>
<path d="M6.55063 7.12548C7.04935 5.7519 8.80625 5.36167 9.8396 6.39498L17.6055 14.1605C18.6389 15.1938 18.2486 16.9507 16.875 17.4493L4.68249 21.8757C3.08955 22.454 1.54573 20.9103 2.12406 19.3174L6.55063 7.12548Z" fill="black" stroke="none"/>
  </g>
  <g id="Light-L" transform="matrix(2.935833 0 0 2.935833 1117.900 1485.540)">
   <path d="M13.8441 1.01419C14.3877 0.921285 14.9036 1.28657 14.9965 1.83008L14.9968 1.8315L14.9971 1.83331C15.0382 2.07975 15.0611 2.32978 15.0756 2.57898C15.1002 2.99932 15.1033 3.58736 14.9941 4.17685C14.8666 4.8654 14.5471 5.48501 14.2939 5.90029C14.1628 6.11527 14.0388 6.29272 13.9463 6.41797C13.8933 6.48972 13.8392 6.56071 13.7822 6.62941L13.7808 6.63118L13.7796 6.63259C13.4257 7.05543 12.796 7.11132 12.3731 6.75744C11.951 6.40413 11.8946 5.77595 12.2465 5.35313L12.2489 5.35024C12.3731 5.19512 12.4856 5.03037 12.589 4.86078C12.7872 4.53575 12.967 4.15698 13.0306 3.81326C13.0989 3.44432 13.102 3.03398 13.0822 2.69555C13.0719 2.51919 13.0553 2.34288 13.0285 2.16822L13.0281 2.16573L13.0279 2.1646C12.9362 1.6218 13.3012 1.10699 13.8441 1.01419Z" fill="black" stroke="none"/>
<path d="M19.0931 2.5565C19.6119 2.74327 19.8811 3.31524 19.6943 3.83404L19.245 5.08201C19.0582 5.60081 18.4862 5.86997 17.9674 5.6832C17.4486 5.49644 17.1794 4.92447 17.3662 4.40567L17.8155 3.1577C18.0023 2.6389 18.5743 2.36974 19.0931 2.5565Z" fill="black" stroke="none"/>
<path d="M21.8944 7.0429C22.141 7.53608 21.9411 8.13578 21.4479 8.38236L20.4494 8.88155C19.9562 9.12814 19.3565 8.92824 19.1099 8.43507C18.8633 7.94189 19.0632 7.34219 19.5564 7.0956L20.5548 6.59641C21.048 6.34982 21.6478 6.54972 21.8944 7.0429Z" fill="black" stroke="none"/>
<path d="M17.2144 6.78343C17.6043 7.17332 17.6043 7.80546 17.2144 8.19535L16.216 9.19373C15.8261 9.58362 15.1939 9.58362 14.804 9.19373C14.4141 8.80384 14.4141 8.1717 14.804 7.78181L15.8024 6.78343C16.1923 6.39353 16.8245 6.39353 17.2144 6.78343Z" fill="black" stroke="none"/>
<path d="M17.0085 10.9416C17.0318 10.3907 17.4973 9.96294 18.0482 9.98623L18.0494 9.98628L18.0509 9.98634L18.0547 9.98652C18.2401 9.99561 18.425 10.0152 18.6088 10.0398C18.9248 10.0821 19.3616 10.1596 19.808 10.3024C20.2301 10.4375 20.668 10.6538 20.9743 10.8176C21.1602 10.9169 21.344 11.0207 21.5235 11.1311L21.5265 11.133L21.5276 11.1336C21.9959 11.4247 22.1404 12.0407 21.8494 12.509C21.5584 12.9772 20.9431 13.121 20.4748 12.8304C20.3304 12.7415 20.1823 12.6584 20.0328 12.5785C19.7578 12.4314 19.4468 12.2833 19.1994 12.2042C18.9031 12.1093 18.591 12.052 18.3439 12.0189C18.2177 12.002 18.0909 11.9884 17.9638 11.9812L17.9623 11.9811C17.4123 11.9568 16.9853 11.4918 17.0085 10.9416Z" fill="black" stroke="none"/>
<path d="M6.55063 7.12548C7.04935 5.7519 8.80625 5.36167 9.8396 6.39498L17.6055 14.1605C18.6389 15.1938 18.2486 16.9507 16.875 17.4493L4.68249 21.8757C3.08955 22.454 1.54573 20.9103 2.12406 19.3174L6.55063 7.12548Z" fill="black" stroke="none"/>
  </g>
  <g id="Regular-S" transform="matrix(2.935792 0 0 2.935792 1414.611 625.541)">
   <path d="M13.8441 1.01419C14.3877 0.921285 14.9036 1.28657 14.9965 1.83008L14.9968 1.8315L14.9971 1.83331C15.0382 2.07975 15.0611 2.32978 15.0756 2.57898C15.1002 2.99932 15.1033 3.58736 14.9941 4.17685C14.8666 4.8654 14.5471 5.48501 14.2939 5.90029C14.1628 6.11527 14.0388 6.29272 13.9463 6.41797C13.8933 6.48972 13.8392 6.56071 13.7822 6.62941L13.7808 6.63118L13.7796 6.63259C13.4257 7.05543 12.796 7.11132 12.3731 6.75744C11.951 6.40413 11.8946 5.77595 12.2465 5.35313L12.2489 5.35024C12.3731 5.19512 12.4856 5.03037 12.589 4.86078C12.7872 4.53575 12.967 4.15698 13.0306 3.81326C13.0989 3.44432 13.102 3.03398 13.0822 2.69555C13.0719 2.51919 13.0553 2.34288 13.0285 2.16822L13.0281 2.16573L13.0279 2.1646C12.9362 1.6218 13.3012 1.10699 13.8441 1.01419Z" fill="black" stroke="none"/>
<path d="M19.0931 2.5565C19.6119 2.74327 19.8811 3.31524 19.6943 3.83404L19.245 5.08201C19.0582 5.60081 18.4862 5.86997 17.9674 5.6832C17.4486 5.49644 17.1794 4.92447 17.3662 4.40567L17.8155 3.1577C18.0023 2.6389 18.5743 2.36974 19.0931 2.5565Z" fill="black" stroke="none"/>
<path d="M21.8944 7.0429C22.141 7.53608 21.9411 8.13578 21.4479 8.38236L20.4494 8.88155C19.9562 9.12814 19.3565 8.92824 19.1099 8.43507C18.8633 7.94189 19.0632 7.34219 19.5564 7.0956L20.5548 6.59641C21.048 6.34982 21.6478 6.54972 21.8944 7.0429Z" fill="black" stroke="none"/>
<path d="M17.2144 6.78343C17.6043 7.17332 17.6043 7.80546 17.2144 8.19535L16.216 9.19373C15.8261 9.58362 15.1939 9.58362 14.804 9.19373C14.4141 8.80384 14.4141 8.1717 14.804 7.78181L15.8024 6.78343C16.1923 6.39353 16.8245 6.39353 17.2144 6.78343Z" fill="black" stroke="none"/>
<path d="M17.0085 10.9416C17.0318 10.3907 17.4973 9.96294 18.0482 9.98623L18.0494 9.98628L18.0509 9.98634L18.0547 9.98652C18.2401 9.99561 18.425 10.0152 18.6088 10.0398C18.9248 10.0821 19.3616 10.1596 19.808 10.3024C20.2301 10.4375 20.668 10.6538 20.9743 10.8176C21.1602 10.9169 21.344 11.0207 21.5235 11.1311L21.5265 11.133L21.5276 11.1336C21.9959 11.4247 22.1404 12.0407 21.8494 12.509C21.5584 12.9772 20.9431 13.121 20.4748 12.8304C20.3304 12.7415 20.1823 12.6584 20.0328 12.5785C19.7578 12.4314 19.4468 12.2833 19.1994 12.2042C18.9031 12.1093 18.591 12.052 18.3439 12.0189C18.2177 12.002 18.0909 11.9884 17.9638 11.9812L17.9623 11.9811C17.4123 11.9568 16.9853 11.4918 17.0085 10.9416Z" fill="black" stroke="none"/>
<path d="M6.55063 7.12548C7.04935 5.7519 8.80625 5.36167 9.8396 6.39498L17.6055 14.1605C18.6389 15.1938 18.2486 16.9507 16.875 17.4493L4.68249 21.8757C3.08955 22.454 1.54573 20.9103 2.12406 19.3174L6.55063 7.12548Z" fill="black" stroke="none"/>
  </g>
  <g id="Regular-M" transform="matrix(2.935833 0 0 2.935833 1414.610 1055.540)">
   <path d="M13.8441 1.01419C14.3877 0.921285 14.9036 1.28657 14.9965 1.83008L14.9968 1.8315L14.9971 1.83331C15.0382 2.07975 15.0611 2.32978 15.0756 2.57898C15.1002 2.99932 15.1033 3.58736 14.9941 4.17685C14.8666 4.8654 14.5471 5.48501 14.2939 5.90029C14.1628 6.11527 14.0388 6.29272 13.9463 6.41797C13.8933 6.48972 13.8392 6.56071 13.7822 6.62941L13.7808 6.63118L13.7796 6.63259C13.4257 7.05543 12.796 7.11132 12.3731 6.75744C11.951 6.40413 11.8946 5.77595 12.2465 5.35313L12.2489 5.35024C12.3731 5.19512 12.4856 5.03037 12.589 4.86078C12.7872 4.53575 12.967 4.15698 13.0306 3.81326C13.0989 3.44432 13.102 3.03398 13.0822 2.69555C13.0719 2.51919 13.0553 2.34288 13.0285 2.16822L13.0281 2.16573L13.0279 2.1646C12.9362 1.6218 13.3012 1.10699 13.8441 1.01419Z" fill="black" stroke="none"/>
<path d="M19.0931 2.5565C19.6119 2.74327 19.8811 3.31524 19.6943 3.83404L19.245 5.08201C19.0582 5.60081 18.4862 5.86997 17.9674 5.6832C17.4486 5.49644 17.1794 4.92447 17.3662 4.40567L17.8155 3.1577C18.0023 2.6389 18.5743 2.36974 19.0931 2.5565Z" fill="black" stroke="none"/>
<path d="M21.8944 7.0429C22.141 7.53608 21.9411 8.13578 21.4479 8.38236L20.4494 8.88155C19.9562 9.12814 19.3565 8.92824 19.1099 8.43507C18.8633 7.94189 19.0632 7.34219 19.5564 7.0956L20.5548 6.59641C21.048 6.34982 21.6478 6.54972 21.8944 7.0429Z" fill="black" stroke="none"/>
<path d="M17.2144 6.78343C17.6043 7.17332 17.6043 7.80546 17.2144 8.19535L16.216 9.19373C15.8261 9.58362 15.1939 9.58362 14.804 9.19373C14.4141 8.80384 14.4141 8.1717 14.804 7.78181L15.8024 6.78343C16.1923 6.39353 16.8245 6.39353 17.2144 6.78343Z" fill="black" stroke="none"/>
<path d="M17.0085 10.9416C17.0318 10.3907 17.4973 9.96294 18.0482 9.98623L18.0494 9.98628L18.0509 9.98634L18.0547 9.98652C18.2401 9.99561 18.425 10.0152 18.6088 10.0398C18.9248 10.0821 19.3616 10.1596 19.808 10.3024C20.2301 10.4375 20.668 10.6538 20.9743 10.8176C21.1602 10.9169 21.344 11.0207 21.5235 11.1311L21.5265 11.133L21.5276 11.1336C21.9959 11.4247 22.1404 12.0407 21.8494 12.509C21.5584 12.9772 20.9431 13.121 20.4748 12.8304C20.3304 12.7415 20.1823 12.6584 20.0328 12.5785C19.7578 12.4314 19.4468 12.2833 19.1994 12.2042C18.9031 12.1093 18.591 12.052 18.3439 12.0189C18.2177 12.002 18.0909 11.9884 17.9638 11.9812L17.9623 11.9811C17.4123 11.9568 16.9853 11.4918 17.0085 10.9416Z" fill="black" stroke="none"/>
<path d="M6.55063 7.12548C7.04935 5.7519 8.80625 5.36167 9.8396 6.39498L17.6055 14.1605C18.6389 15.1938 18.2486 16.9507 16.875 17.4493L4.68249 21.8757C3.08955 22.454 1.54573 20.9103 2.12406 19.3174L6.55063 7.12548Z" fill="black" stroke="none"/>
  </g>
  <g id="Regular-L" transform="matrix(2.935833 0 0 2.935833 1414.610 1485.540)">
   <path d="M13.8441 1.01419C14.3877 0.921285 14.9036 1.28657 14.9965 1.83008L14.9968 1.8315L14.9971 1.83331C15.0382 2.07975 15.0611 2.32978 15.0756 2.57898C15.1002 2.99932 15.1033 3.58736 14.9941 4.17685C14.8666 4.8654 14.5471 5.48501 14.2939 5.90029C14.1628 6.11527 14.0388 6.29272 13.9463 6.41797C13.8933 6.48972 13.8392 6.56071 13.7822 6.62941L13.7808 6.63118L13.7796 6.63259C13.4257 7.05543 12.796 7.11132 12.3731 6.75744C11.951 6.40413 11.8946 5.77595 12.2465 5.35313L12.2489 5.35024C12.3731 5.19512 12.4856 5.03037 12.589 4.86078C12.7872 4.53575 12.967 4.15698 13.0306 3.81326C13.0989 3.44432 13.102 3.03398 13.0822 2.69555C13.0719 2.51919 13.0553 2.34288 13.0285 2.16822L13.0281 2.16573L13.0279 2.1646C12.9362 1.6218 13.3012 1.10699 13.8441 1.01419Z" fill="black" stroke="none"/>
<path d="M19.0931 2.5565C19.6119 2.74327 19.8811 3.31524 19.6943 3.83404L19.245 5.08201C19.0582 5.60081 18.4862 5.86997 17.9674 5.6832C17.4486 5.49644 17.1794 4.92447 17.3662 4.40567L17.8155 3.1577C18.0023 2.6389 18.5743 2.36974 19.0931 2.5565Z" fill="black" stroke="none"/>
<path d="M21.8944 7.0429C22.141 7.53608 21.9411 8.13578 21.4479 8.38236L20.4494 8.88155C19.9562 9.12814 19.3565 8.92824 19.1099 8.43507C18.8633 7.94189 19.0632 7.34219 19.5564 7.0956L20.5548 6.59641C21.048 6.34982 21.6478 6.54972 21.8944 7.0429Z" fill="black" stroke="none"/>
<path d="M17.2144 6.78343C17.6043 7.17332 17.6043 7.80546 17.2144 8.19535L16.216 9.19373C15.8261 9.58362 15.1939 9.58362 14.804 9.19373C14.4141 8.80384 14.4141 8.1717 14.804 7.78181L15.8024 6.78343C16.1923 6.39353 16.8245 6.39353 17.2144 6.78343Z" fill="black" stroke="none"/>
<path d="M17.0085 10.9416C17.0318 10.3907 17.4973 9.96294 18.0482 9.98623L18.0494 9.98628L18.0509 9.98634L18.0547 9.98652C18.2401 9.99561 18.425 10.0152 18.6088 10.0398C18.9248 10.0821 19.3616 10.1596 19.808 10.3024C20.2301 10.4375 20.668 10.6538 20.9743 10.8176C21.1602 10.9169 21.344 11.0207 21.5235 11.1311L21.5265 11.133L21.5276 11.1336C21.9959 11.4247 22.1404 12.0407 21.8494 12.509C21.5584 12.9772 20.9431 13.121 20.4748 12.8304C20.3304 12.7415 20.1823 12.6584 20.0328 12.5785C19.7578 12.4314 19.4468 12.2833 19.1994 12.2042C18.9031 12.1093 18.591 12.052 18.3439 12.0189C18.2177 12.002 18.0909 11.9884 17.9638 11.9812L17.9623 11.9811C17.4123 11.9568 16.9853 11.4918 17.0085 10.9416Z" fill="black" stroke="none"/>
<path d="M6.55063 7.12548C7.04935 5.7519 8.80625 5.36167 9.8396 6.39498L17.6055 14.1605C18.6389 15.1938 18.2486 16.9507 16.875 17.4493L4.68249 21.8757C3.08955 22.454 1.54573 20.9103 2.12406 19.3174L6.55063 7.12548Z" fill="black" stroke="none"/>
  </g>
  <g id="Medium-S" transform="matrix(2.935792 0 0 2.935792 1711.331 625.541)">
   <path d="M13.8441 1.01419C14.3877 0.921285 14.9036 1.28657 14.9965 1.83008L14.9968 1.8315L14.9971 1.83331C15.0382 2.07975 15.0611 2.32978 15.0756 2.57898C15.1002 2.99932 15.1033 3.58736 14.9941 4.17685C14.8666 4.8654 14.5471 5.48501 14.2939 5.90029C14.1628 6.11527 14.0388 6.29272 13.9463 6.41797C13.8933 6.48972 13.8392 6.56071 13.7822 6.62941L13.7808 6.63118L13.7796 6.63259C13.4257 7.05543 12.796 7.11132 12.3731 6.75744C11.951 6.40413 11.8946 5.77595 12.2465 5.35313L12.2489 5.35024C12.3731 5.19512 12.4856 5.03037 12.589 4.86078C12.7872 4.53575 12.967 4.15698 13.0306 3.81326C13.0989 3.44432 13.102 3.03398 13.0822 2.69555C13.0719 2.51919 13.0553 2.34288 13.0285 2.16822L13.0281 2.16573L13.0279 2.1646C12.9362 1.6218 13.3012 1.10699 13.8441 1.01419Z" fill="black" stroke="none"/>
<path d="M19.0931 2.5565C19.6119 2.74327 19.8811 3.31524 19.6943 3.83404L19.245 5.08201C19.0582 5.60081 18.4862 5.86997 17.9674 5.6832C17.4486 5.49644 17.1794 4.92447 17.3662 4.40567L17.8155 3.1577C18.0023 2.6389 18.5743 2.36974 19.0931 2.5565Z" fill="black" stroke="none"/>
<path d="M21.8944 7.0429C22.141 7.53608 21.9411 8.13578 21.4479 8.38236L20.4494 8.88155C19.9562 9.12814 19.3565 8.92824 19.1099 8.43507C18.8633 7.94189 19.0632 7.34219 19.5564 7.0956L20.5548 6.59641C21.048 6.34982 21.6478 6.54972 21.8944 7.0429Z" fill="black" stroke="none"/>
<path d="M17.2144 6.78343C17.6043 7.17332 17.6043 7.80546 17.2144 8.19535L16.216 9.19373C15.8261 9.58362 15.1939 9.58362 14.804 9.19373C14.4141 8.80384 14.4141 8.1717 14.804 7.78181L15.8024 6.78343C16.1923 6.39353 16.8245 6.39353 17.2144 6.78343Z" fill="black" stroke="none"/>
<path d="M17.0085 10.9416C17.0318 10.3907 17.4973 9.96294 18.0482 9.98623L18.0494 9.98628L18.0509 9.98634L18.0547 9.98652C18.2401 9.99561 18.425 10.0152 18.6088 10.0398C18.9248 10.0821 19.3616 10.1596 19.808 10.3024C20.2301 10.4375 20.668 10.6538 20.9743 10.8176C21.1602 10.9169 21.344 11.0207 21.5235 11.1311L21.5265 11.133L21.5276 11.1336C21.9959 11.4247 22.1404 12.0407 21.8494 12.509C21.5584 12.9772 20.9431 13.121 20.4748 12.8304C20.3304 12.7415 20.1823 12.6584 20.0328 12.5785C19.7578 12.4314 19.4468 12.2833 19.1994 12.2042C18.9031 12.1093 18.591 12.052 18.3439 12.0189C18.2177 12.002 18.0909 11.9884 17.9638 11.9812L17.9623 11.9811C17.4123 11.9568 16.9853 11.4918 17.0085 10.9416Z" fill="black" stroke="none"/>
<path d="M6.55063 7.12548C7.04935 5.7519 8.80625 5.36167 9.8396 6.39498L17.6055 14.1605C18.6389 15.1938 18.2486 16.9507 16.875 17.4493L4.68249 21.8757C3.08955 22.454 1.54573 20.9103 2.12406 19.3174L6.55063 7.12548Z" fill="black" stroke="none"/>
  </g>
  <g id="Medium-M" transform="matrix(2.935833 0 0 2.935833 1711.330 1055.540)">
   <path d="M13.8441 1.01419C14.3877 0.921285 14.9036 1.28657 14.9965 1.83008L14.9968 1.8315L14.9971 1.83331C15.0382 2.07975 15.0611 2.32978 15.0756 2.57898C15.1002 2.99932 15.1033 3.58736 14.9941 4.17685C14.8666 4.8654 14.5471 5.48501 14.2939 5.90029C14.1628 6.11527 14.0388 6.29272 13.9463 6.41797C13.8933 6.48972 13.8392 6.56071 13.7822 6.62941L13.7808 6.63118L13.7796 6.63259C13.4257 7.05543 12.796 7.11132 12.3731 6.75744C11.951 6.40413 11.8946 5.77595 12.2465 5.35313L12.2489 5.35024C12.3731 5.19512 12.4856 5.03037 12.589 4.86078C12.7872 4.53575 12.967 4.15698 13.0306 3.81326C13.0989 3.44432 13.102 3.03398 13.0822 2.69555C13.0719 2.51919 13.0553 2.34288 13.0285 2.16822L13.0281 2.16573L13.0279 2.1646C12.9362 1.6218 13.3012 1.10699 13.8441 1.01419Z" fill="black" stroke="none"/>
<path d="M19.0931 2.5565C19.6119 2.74327 19.8811 3.31524 19.6943 3.83404L19.245 5.08201C19.0582 5.60081 18.4862 5.86997 17.9674 5.6832C17.4486 5.49644 17.1794 4.92447 17.3662 4.40567L17.8155 3.1577C18.0023 2.6389 18.5743 2.36974 19.0931 2.5565Z" fill="black" stroke="none"/>
<path d="M21.8944 7.0429C22.141 7.53608 21.9411 8.13578 21.4479 8.38236L20.4494 8.88155C19.9562 9.12814 19.3565 8.92824 19.1099 8.43507C18.8633 7.94189 19.0632 7.34219 19.5564 7.0956L20.5548 6.59641C21.048 6.34982 21.6478 6.54972 21.8944 7.0429Z" fill="black" stroke="none"/>
<path d="M17.2144 6.78343C17.6043 7.17332 17.6043 7.80546 17.2144 8.19535L16.216 9.19373C15.8261 9.58362 15.1939 9.58362 14.804 9.19373C14.4141 8.80384 14.4141 8.1717 14.804 7.78181L15.8024 6.78343C16.1923 6.39353 16.8245 6.39353 17.2144 6.78343Z" fill="black" stroke="none"/>
<path d="M17.0085 10.9416C17.0318 10.3907 17.4973 9.96294 18.0482 9.98623L18.0494 9.98628L18.0509 9.98634L18.0547 9.98652C18.2401 9.99561 18.425 10.0152 18.6088 10.0398C18.9248 10.0821 19.3616 10.1596 19.808 10.3024C20.2301 10.4375 20.668 10.6538 20.9743 10.8176C21.1602 10.9169 21.344 11.0207 21.5235 11.1311L21.5265 11.133L21.5276 11.1336C21.9959 11.4247 22.1404 12.0407 21.8494 12.509C21.5584 12.9772 20.9431 13.121 20.4748 12.8304C20.3304 12.7415 20.1823 12.6584 20.0328 12.5785C19.7578 12.4314 19.4468 12.2833 19.1994 12.2042C18.9031 12.1093 18.591 12.052 18.3439 12.0189C18.2177 12.002 18.0909 11.9884 17.9638 11.9812L17.9623 11.9811C17.4123 11.9568 16.9853 11.4918 17.0085 10.9416Z" fill="black" stroke="none"/>
<path d="M6.55063 7.12548C7.04935 5.7519 8.80625 5.36167 9.8396 6.39498L17.6055 14.1605C18.6389 15.1938 18.2486 16.9507 16.875 17.4493L4.68249 21.8757C3.08955 22.454 1.54573 20.9103 2.12406 19.3174L6.55063 7.12548Z" fill="black" stroke="none"/>
  </g>
  <g id="Medium-L" transform="matrix(2.935833 0 0 2.935833 1711.330 1485.540)">
   <path d="M13.8441 1.01419C14.3877 0.921285 14.9036 1.28657 14.9965 1.83008L14.9968 1.8315L14.9971 1.83331C15.0382 2.07975 15.0611 2.32978 15.0756 2.57898C15.1002 2.99932 15.1033 3.58736 14.9941 4.17685C14.8666 4.8654 14.5471 5.48501 14.2939 5.90029C14.1628 6.11527 14.0388 6.29272 13.9463 6.41797C13.8933 6.48972 13.8392 6.56071 13.7822 6.62941L13.7808 6.63118L13.7796 6.63259C13.4257 7.05543 12.796 7.11132 12.3731 6.75744C11.951 6.40413 11.8946 5.77595 12.2465 5.35313L12.2489 5.35024C12.3731 5.19512 12.4856 5.03037 12.589 4.86078C12.7872 4.53575 12.967 4.15698 13.0306 3.81326C13.0989 3.44432 13.102 3.03398 13.0822 2.69555C13.0719 2.51919 13.0553 2.34288 13.0285 2.16822L13.0281 2.16573L13.0279 2.1646C12.9362 1.6218 13.3012 1.10699 13.8441 1.01419Z" fill="black" stroke="none"/>
<path d="M19.0931 2.5565C19.6119 2.74327 19.8811 3.31524 19.6943 3.83404L19.245 5.08201C19.0582 5.60081 18.4862 5.86997 17.9674 5.6832C17.4486 5.49644 17.1794 4.92447 17.3662 4.40567L17.8155 3.1577C18.0023 2.6389 18.5743 2.36974 19.0931 2.5565Z" fill="black" stroke="none"/>
<path d="M21.8944 7.0429C22.141 7.53608 21.9411 8.13578 21.4479 8.38236L20.4494 8.88155C19.9562 9.12814 19.3565 8.92824 19.1099 8.43507C18.8633 7.94189 19.0632 7.34219 19.5564 7.0956L20.5548 6.59641C21.048 6.34982 21.6478 6.54972 21.8944 7.0429Z" fill="black" stroke="none"/>
<path d="M17.2144 6.78343C17.6043 7.17332 17.6043 7.80546 17.2144 8.19535L16.216 9.19373C15.8261 9.58362 15.1939 9.58362 14.804 9.19373C14.4141 8.80384 14.4141 8.1717 14.804 7.78181L15.8024 6.78343C16.1923 6.39353 16.8245 6.39353 17.2144 6.78343Z" fill="black" stroke="none"/>
<path d="M17.0085 10.9416C17.0318 10.3907 17.4973 9.96294 18.0482 9.98623L18.0494 9.98628L18.0509 9.98634L18.0547 9.98652C18.2401 9.99561 18.425 10.0152 18.6088 10.0398C18.9248 10.0821 19.3616 10.1596 19.808 10.3024C20.2301 10.4375 20.668 10.6538 20.9743 10.8176C21.1602 10.9169 21.344 11.0207 21.5235 11.1311L21.5265 11.133L21.5276 11.1336C21.9959 11.4247 22.1404 12.0407 21.8494 12.509C21.5584 12.9772 20.9431 13.121 20.4748 12.8304C20.3304 12.7415 20.1823 12.6584 20.0328 12.5785C19.7578 12.4314 19.4468 12.2833 19.1994 12.2042C18.9031 12.1093 18.591 12.052 18.3439 12.0189C18.2177 12.002 18.0909 11.9884 17.9638 11.9812L17.9623 11.9811C17.4123 11.9568 16.9853 11.4918 17.0085 10.9416Z" fill="black" stroke="none"/>
<path d="M6.55063 7.12548C7.04935 5.7519 8.80625 5.36167 9.8396 6.39498L17.6055 14.1605C18.6389 15.1938 18.2486 16.9507 16.875 17.4493L4.68249 21.8757C3.08955 22.454 1.54573 20.9103 2.12406 19.3174L6.55063 7.12548Z" fill="black" stroke="none"/>
  </g>
  <g id="Semibold-S" transform="matrix(2.935792 0 0 2.935792 2008.041 625.541)">
   <path d="M13.8441 1.01419C14.3877 0.921285 14.9036 1.28657 14.9965 1.83008L14.9968 1.8315L14.9971 1.83331C15.0382 2.07975 15.0611 2.32978 15.0756 2.57898C15.1002 2.99932 15.1033 3.58736 14.9941 4.17685C14.8666 4.8654 14.5471 5.48501 14.2939 5.90029C14.1628 6.11527 14.0388 6.29272 13.9463 6.41797C13.8933 6.48972 13.8392 6.56071 13.7822 6.62941L13.7808 6.63118L13.7796 6.63259C13.4257 7.05543 12.796 7.11132 12.3731 6.75744C11.951 6.40413 11.8946 5.77595 12.2465 5.35313L12.2489 5.35024C12.3731 5.19512 12.4856 5.03037 12.589 4.86078C12.7872 4.53575 12.967 4.15698 13.0306 3.81326C13.0989 3.44432 13.102 3.03398 13.0822 2.69555C13.0719 2.51919 13.0553 2.34288 13.0285 2.16822L13.0281 2.16573L13.0279 2.1646C12.9362 1.6218 13.3012 1.10699 13.8441 1.01419Z" fill="black" stroke="none"/>
<path d="M19.0931 2.5565C19.6119 2.74327 19.8811 3.31524 19.6943 3.83404L19.245 5.08201C19.0582 5.60081 18.4862 5.86997 17.9674 5.6832C17.4486 5.49644 17.1794 4.92447 17.3662 4.40567L17.8155 3.1577C18.0023 2.6389 18.5743 2.36974 19.0931 2.5565Z" fill="black" stroke="none"/>
<path d="M21.8944 7.0429C22.141 7.53608 21.9411 8.13578 21.4479 8.38236L20.4494 8.88155C19.9562 9.12814 19.3565 8.92824 19.1099 8.43507C18.8633 7.94189 19.0632 7.34219 19.5564 7.0956L20.5548 6.59641C21.048 6.34982 21.6478 6.54972 21.8944 7.0429Z" fill="black" stroke="none"/>
<path d="M17.2144 6.78343C17.6043 7.17332 17.6043 7.80546 17.2144 8.19535L16.216 9.19373C15.8261 9.58362 15.1939 9.58362 14.804 9.19373C14.4141 8.80384 14.4141 8.1717 14.804 7.78181L15.8024 6.78343C16.1923 6.39353 16.8245 6.39353 17.2144 6.78343Z" fill="black" stroke="none"/>
<path d="M17.0085 10.9416C17.0318 10.3907 17.4973 9.96294 18.0482 9.98623L18.0494 9.98628L18.0509 9.98634L18.0547 9.98652C18.2401 9.99561 18.425 10.0152 18.6088 10.0398C18.9248 10.0821 19.3616 10.1596 19.808 10.3024C20.2301 10.4375 20.668 10.6538 20.9743 10.8176C21.1602 10.9169 21.344 11.0207 21.5235 11.1311L21.5265 11.133L21.5276 11.1336C21.9959 11.4247 22.1404 12.0407 21.8494 12.509C21.5584 12.9772 20.9431 13.121 20.4748 12.8304C20.3304 12.7415 20.1823 12.6584 20.0328 12.5785C19.7578 12.4314 19.4468 12.2833 19.1994 12.2042C18.9031 12.1093 18.591 12.052 18.3439 12.0189C18.2177 12.002 18.0909 11.9884 17.9638 11.9812L17.9623 11.9811C17.4123 11.9568 16.9853 11.4918 17.0085 10.9416Z" fill="black" stroke="none"/>
<path d="M6.55063 7.12548C7.04935 5.7519 8.80625 5.36167 9.8396 6.39498L17.6055 14.1605C18.6389 15.1938 18.2486 16.9507 16.875 17.4493L4.68249 21.8757C3.08955 22.454 1.54573 20.9103 2.12406 19.3174L6.55063 7.12548Z" fill="black" stroke="none"/>
  </g>
  <g id="Semibold-M" transform="matrix(2.935833 0 0 2.935833 2008.040 1055.540)">
   <path d="M13.8441 1.01419C14.3877 0.921285 14.9036 1.28657 14.9965 1.83008L14.9968 1.8315L14.9971 1.83331C15.0382 2.07975 15.0611 2.32978 15.0756 2.57898C15.1002 2.99932 15.1033 3.58736 14.9941 4.17685C14.8666 4.8654 14.5471 5.48501 14.2939 5.90029C14.1628 6.11527 14.0388 6.29272 13.9463 6.41797C13.8933 6.48972 13.8392 6.56071 13.7822 6.62941L13.7808 6.63118L13.7796 6.63259C13.4257 7.05543 12.796 7.11132 12.3731 6.75744C11.951 6.40413 11.8946 5.77595 12.2465 5.35313L12.2489 5.35024C12.3731 5.19512 12.4856 5.03037 12.589 4.86078C12.7872 4.53575 12.967 4.15698 13.0306 3.81326C13.0989 3.44432 13.102 3.03398 13.0822 2.69555C13.0719 2.51919 13.0553 2.34288 13.0285 2.16822L13.0281 2.16573L13.0279 2.1646C12.9362 1.6218 13.3012 1.10699 13.8441 1.01419Z" fill="black" stroke="none"/>
<path d="M19.0931 2.5565C19.6119 2.74327 19.8811 3.31524 19.6943 3.83404L19.245 5.08201C19.0582 5.60081 18.4862 5.86997 17.9674 5.6832C17.4486 5.49644 17.1794 4.92447 17.3662 4.40567L17.8155 3.1577C18.0023 2.6389 18.5743 2.36974 19.0931 2.5565Z" fill="black" stroke="none"/>
<path d="M21.8944 7.0429C22.141 7.53608 21.9411 8.13578 21.4479 8.38236L20.4494 8.88155C19.9562 9.12814 19.3565 8.92824 19.1099 8.43507C18.8633 7.94189 19.0632 7.34219 19.5564 7.0956L20.5548 6.59641C21.048 6.34982 21.6478 6.54972 21.8944 7.0429Z" fill="black" stroke="none"/>
<path d="M17.2144 6.78343C17.6043 7.17332 17.6043 7.80546 17.2144 8.19535L16.216 9.19373C15.8261 9.58362 15.1939 9.58362 14.804 9.19373C14.4141 8.80384 14.4141 8.1717 14.804 7.78181L15.8024 6.78343C16.1923 6.39353 16.8245 6.39353 17.2144 6.78343Z" fill="black" stroke="none"/>
<path d="M17.0085 10.9416C17.0318 10.3907 17.4973 9.96294 18.0482 9.98623L18.0494 9.98628L18.0509 9.98634L18.0547 9.98652C18.2401 9.99561 18.425 10.0152 18.6088 10.0398C18.9248 10.0821 19.3616 10.1596 19.808 10.3024C20.2301 10.4375 20.668 10.6538 20.9743 10.8176C21.1602 10.9169 21.344 11.0207 21.5235 11.1311L21.5265 11.133L21.5276 11.1336C21.9959 11.4247 22.1404 12.0407 21.8494 12.509C21.5584 12.9772 20.9431 13.121 20.4748 12.8304C20.3304 12.7415 20.1823 12.6584 20.0328 12.5785C19.7578 12.4314 19.4468 12.2833 19.1994 12.2042C18.9031 12.1093 18.591 12.052 18.3439 12.0189C18.2177 12.002 18.0909 11.9884 17.9638 11.9812L17.9623 11.9811C17.4123 11.9568 16.9853 11.4918 17.0085 10.9416Z" fill="black" stroke="none"/>
<path d="M6.55063 7.12548C7.04935 5.7519 8.80625 5.36167 9.8396 6.39498L17.6055 14.1605C18.6389 15.1938 18.2486 16.9507 16.875 17.4493L4.68249 21.8757C3.08955 22.454 1.54573 20.9103 2.12406 19.3174L6.55063 7.12548Z" fill="black" stroke="none"/>
  </g>
  <g id="Semibold-L" transform="matrix(2.935833 0 0 2.935833 2008.040 1485.540)">
   <path d="M13.8441 1.01419C14.3877 0.921285 14.9036 1.28657 14.9965 1.83008L14.9968 1.8315L14.9971 1.83331C15.0382 2.07975 15.0611 2.32978 15.0756 2.57898C15.1002 2.99932 15.1033 3.58736 14.9941 4.17685C14.8666 4.8654 14.5471 5.48501 14.2939 5.90029C14.1628 6.11527 14.0388 6.29272 13.9463 6.41797C13.8933 6.48972 13.8392 6.56071 13.7822 6.62941L13.7808 6.63118L13.7796 6.63259C13.4257 7.05543 12.796 7.11132 12.3731 6.75744C11.951 6.40413 11.8946 5.77595 12.2465 5.35313L12.2489 5.35024C12.3731 5.19512 12.4856 5.03037 12.589 4.86078C12.7872 4.53575 12.967 4.15698 13.0306 3.81326C13.0989 3.44432 13.102 3.03398 13.0822 2.69555C13.0719 2.51919 13.0553 2.34288 13.0285 2.16822L13.0281 2.16573L13.0279 2.1646C12.9362 1.6218 13.3012 1.10699 13.8441 1.01419Z" fill="black" stroke="none"/>
<path d="M19.0931 2.5565C19.6119 2.74327 19.8811 3.31524 19.6943 3.83404L19.245 5.08201C19.0582 5.60081 18.4862 5.86997 17.9674 5.6832C17.4486 5.49644 17.1794 4.92447 17.3662 4.40567L17.8155 3.1577C18.0023 2.6389 18.5743 2.36974 19.0931 2.5565Z" fill="black" stroke="none"/>
<path d="M21.8944 7.0429C22.141 7.53608 21.9411 8.13578 21.4479 8.38236L20.4494 8.88155C19.9562 9.12814 19.3565 8.92824 19.1099 8.43507C18.8633 7.94189 19.0632 7.34219 19.5564 7.0956L20.5548 6.59641C21.048 6.34982 21.6478 6.54972 21.8944 7.0429Z" fill="black" stroke="none"/>
<path d="M17.2144 6.78343C17.6043 7.17332 17.6043 7.80546 17.2144 8.19535L16.216 9.19373C15.8261 9.58362 15.1939 9.58362 14.804 9.19373C14.4141 8.80384 14.4141 8.1717 14.804 7.78181L15.8024 6.78343C16.1923 6.39353 16.8245 6.39353 17.2144 6.78343Z" fill="black" stroke="none"/>
<path d="M17.0085 10.9416C17.0318 10.3907 17.4973 9.96294 18.0482 9.98623L18.0494 9.98628L18.0509 9.98634L18.0547 9.98652C18.2401 9.99561 18.425 10.0152 18.6088 10.0398C18.9248 10.0821 19.3616 10.1596 19.808 10.3024C20.2301 10.4375 20.668 10.6538 20.9743 10.8176C21.1602 10.9169 21.344 11.0207 21.5235 11.1311L21.5265 11.133L21.5276 11.1336C21.9959 11.4247 22.1404 12.0407 21.8494 12.509C21.5584 12.9772 20.9431 13.121 20.4748 12.8304C20.3304 12.7415 20.1823 12.6584 20.0328 12.5785C19.7578 12.4314 19.4468 12.2833 19.1994 12.2042C18.9031 12.1093 18.591 12.052 18.3439 12.0189C18.2177 12.002 18.0909 11.9884 17.9638 11.9812L17.9623 11.9811C17.4123 11.9568 16.9853 11.4918 17.0085 10.9416Z" fill="black" stroke="none"/>
<path d="M6.55063 7.12548C7.04935 5.7519 8.80625 5.36167 9.8396 6.39498L17.6055 14.1605C18.6389 15.1938 18.2486 16.9507 16.875 17.4493L4.68249 21.8757C3.08955 22.454 1.54573 20.9103 2.12406 19.3174L6.55063 7.12548Z" fill="black" stroke="none"/>
  </g>
  <g id="Bold-S" transform="matrix(2.935792 0 0 2.935792 2304.751 625.541)">
   <path d="M13.8441 1.01419C14.3877 0.921285 14.9036 1.28657 14.9965 1.83008L14.9968 1.8315L14.9971 1.83331C15.0382 2.07975 15.0611 2.32978 15.0756 2.57898C15.1002 2.99932 15.1033 3.58736 14.9941 4.17685C14.8666 4.8654 14.5471 5.48501 14.2939 5.90029C14.1628 6.11527 14.0388 6.29272 13.9463 6.41797C13.8933 6.48972 13.8392 6.56071 13.7822 6.62941L13.7808 6.63118L13.7796 6.63259C13.4257 7.05543 12.796 7.11132 12.3731 6.75744C11.951 6.40413 11.8946 5.77595 12.2465 5.35313L12.2489 5.35024C12.3731 5.19512 12.4856 5.03037 12.589 4.86078C12.7872 4.53575 12.967 4.15698 13.0306 3.81326C13.0989 3.44432 13.102 3.03398 13.0822 2.69555C13.0719 2.51919 13.0553 2.34288 13.0285 2.16822L13.0281 2.16573L13.0279 2.1646C12.9362 1.6218 13.3012 1.10699 13.8441 1.01419Z" fill="black" stroke="none"/>
<path d="M19.0931 2.5565C19.6119 2.74327 19.8811 3.31524 19.6943 3.83404L19.245 5.08201C19.0582 5.60081 18.4862 5.86997 17.9674 5.6832C17.4486 5.49644 17.1794 4.92447 17.3662 4.40567L17.8155 3.1577C18.0023 2.6389 18.5743 2.36974 19.0931 2.5565Z" fill="black" stroke="none"/>
<path d="M21.8944 7.0429C22.141 7.53608 21.9411 8.13578 21.4479 8.38236L20.4494 8.88155C19.9562 9.12814 19.3565 8.92824 19.1099 8.43507C18.8633 7.94189 19.0632 7.34219 19.5564 7.0956L20.5548 6.59641C21.048 6.34982 21.6478 6.54972 21.8944 7.0429Z" fill="black" stroke="none"/>
<path d="M17.2144 6.78343C17.6043 7.17332 17.6043 7.80546 17.2144 8.19535L16.216 9.19373C15.8261 9.58362 15.1939 9.58362 14.804 9.19373C14.4141 8.80384 14.4141 8.1717 14.804 7.78181L15.8024 6.78343C16.1923 6.39353 16.8245 6.39353 17.2144 6.78343Z" fill="black" stroke="none"/>
<path d="M17.0085 10.9416C17.0318 10.3907 17.4973 9.96294 18.0482 9.98623L18.0494 9.98628L18.0509 9.98634L18.0547 9.98652C18.2401 9.99561 18.425 10.0152 18.6088 10.0398C18.9248 10.0821 19.3616 10.1596 19.808 10.3024C20.2301 10.4375 20.668 10.6538 20.9743 10.8176C21.1602 10.9169 21.344 11.0207 21.5235 11.1311L21.5265 11.133L21.5276 11.1336C21.9959 11.4247 22.1404 12.0407 21.8494 12.509C21.5584 12.9772 20.9431 13.121 20.4748 12.8304C20.3304 12.7415 20.1823 12.6584 20.0328 12.5785C19.7578 12.4314 19.4468 12.2833 19.1994 12.2042C18.9031 12.1093 18.591 12.052 18.3439 12.0189C18.2177 12.002 18.0909 11.9884 17.9638 11.9812L17.9623 11.9811C17.4123 11.9568 16.9853 11.4918 17.0085 10.9416Z" fill="black" stroke="none"/>
<path d="M6.55063 7.12548C7.04935 5.7519 8.80625 5.36167 9.8396 6.39498L17.6055 14.1605C18.6389 15.1938 18.2486 16.9507 16.875 17.4493L4.68249 21.8757C3.08955 22.454 1.54573 20.9103 2.12406 19.3174L6.55063 7.12548Z" fill="black" stroke="none"/>
  </g>
  <g id="Bold-M" transform="matrix(2.935833 0 0 2.935833 2304.750 1055.540)">
   <path d="M13.8441 1.01419C14.3877 0.921285 14.9036 1.28657 14.9965 1.83008L14.9968 1.8315L14.9971 1.83331C15.0382 2.07975 15.0611 2.32978 15.0756 2.57898C15.1002 2.99932 15.1033 3.58736 14.9941 4.17685C14.8666 4.8654 14.5471 5.48501 14.2939 5.90029C14.1628 6.11527 14.0388 6.29272 13.9463 6.41797C13.8933 6.48972 13.8392 6.56071 13.7822 6.62941L13.7808 6.63118L13.7796 6.63259C13.4257 7.05543 12.796 7.11132 12.3731 6.75744C11.951 6.40413 11.8946 5.77595 12.2465 5.35313L12.2489 5.35024C12.3731 5.19512 12.4856 5.03037 12.589 4.86078C12.7872 4.53575 12.967 4.15698 13.0306 3.81326C13.0989 3.44432 13.102 3.03398 13.0822 2.69555C13.0719 2.51919 13.0553 2.34288 13.0285 2.16822L13.0281 2.16573L13.0279 2.1646C12.9362 1.6218 13.3012 1.10699 13.8441 1.01419Z" fill="black" stroke="none"/>
<path d="M19.0931 2.5565C19.6119 2.74327 19.8811 3.31524 19.6943 3.83404L19.245 5.08201C19.0582 5.60081 18.4862 5.86997 17.9674 5.6832C17.4486 5.49644 17.1794 4.92447 17.3662 4.40567L17.8155 3.1577C18.0023 2.6389 18.5743 2.36974 19.0931 2.5565Z" fill="black" stroke="none"/>
<path d="M21.8944 7.0429C22.141 7.53608 21.9411 8.13578 21.4479 8.38236L20.4494 8.88155C19.9562 9.12814 19.3565 8.92824 19.1099 8.43507C18.8633 7.94189 19.0632 7.34219 19.5564 7.0956L20.5548 6.59641C21.048 6.34982 21.6478 6.54972 21.8944 7.0429Z" fill="black" stroke="none"/>
<path d="M17.2144 6.78343C17.6043 7.17332 17.6043 7.80546 17.2144 8.19535L16.216 9.19373C15.8261 9.58362 15.1939 9.58362 14.804 9.19373C14.4141 8.80384 14.4141 8.1717 14.804 7.78181L15.8024 6.78343C16.1923 6.39353 16.8245 6.39353 17.2144 6.78343Z" fill="black" stroke="none"/>
<path d="M17.0085 10.9416C17.0318 10.3907 17.4973 9.96294 18.0482 9.98623L18.0494 9.98628L18.0509 9.98634L18.0547 9.98652C18.2401 9.99561 18.425 10.0152 18.6088 10.0398C18.9248 10.0821 19.3616 10.1596 19.808 10.3024C20.2301 10.4375 20.668 10.6538 20.9743 10.8176C21.1602 10.9169 21.344 11.0207 21.5235 11.1311L21.5265 11.133L21.5276 11.1336C21.9959 11.4247 22.1404 12.0407 21.8494 12.509C21.5584 12.9772 20.9431 13.121 20.4748 12.8304C20.3304 12.7415 20.1823 12.6584 20.0328 12.5785C19.7578 12.4314 19.4468 12.2833 19.1994 12.2042C18.9031 12.1093 18.591 12.052 18.3439 12.0189C18.2177 12.002 18.0909 11.9884 17.9638 11.9812L17.9623 11.9811C17.4123 11.9568 16.9853 11.4918 17.0085 10.9416Z" fill="black" stroke="none"/>
<path d="M6.55063 7.12548C7.04935 5.7519 8.80625 5.36167 9.8396 6.39498L17.6055 14.1605C18.6389 15.1938 18.2486 16.9507 16.875 17.4493L4.68249 21.8757C3.08955 22.454 1.54573 20.9103 2.12406 19.3174L6.55063 7.12548Z" fill="black" stroke="none"/>
  </g>
  <g id="Bold-L" transform="matrix(2.935833 0 0 2.935833 2304.750 1485.540)">
   <path d="M13.8441 1.01419C14.3877 0.921285 14.9036 1.28657 14.9965 1.83008L14.9968 1.8315L14.9971 1.83331C15.0382 2.07975 15.0611 2.32978 15.0756 2.57898C15.1002 2.99932 15.1033 3.58736 14.9941 4.17685C14.8666 4.8654 14.5471 5.48501 14.2939 5.90029C14.1628 6.11527 14.0388 6.29272 13.9463 6.41797C13.8933 6.48972 13.8392 6.56071 13.7822 6.62941L13.7808 6.63118L13.7796 6.63259C13.4257 7.05543 12.796 7.11132 12.3731 6.75744C11.951 6.40413 11.8946 5.77595 12.2465 5.35313L12.2489 5.35024C12.3731 5.19512 12.4856 5.03037 12.589 4.86078C12.7872 4.53575 12.967 4.15698 13.0306 3.81326C13.0989 3.44432 13.102 3.03398 13.0822 2.69555C13.0719 2.51919 13.0553 2.34288 13.0285 2.16822L13.0281 2.16573L13.0279 2.1646C12.9362 1.6218 13.3012 1.10699 13.8441 1.01419Z" fill="black" stroke="none"/>
<path d="M19.0931 2.5565C19.6119 2.74327 19.8811 3.31524 19.6943 3.83404L19.245 5.08201C19.0582 5.60081 18.4862 5.86997 17.9674 5.6832C17.4486 5.49644 17.1794 4.92447 17.3662 4.40567L17.8155 3.1577C18.0023 2.6389 18.5743 2.36974 19.0931 2.5565Z" fill="black" stroke="none"/>
<path d="M21.8944 7.0429C22.141 7.53608 21.9411 8.13578 21.4479 8.38236L20.4494 8.88155C19.9562 9.12814 19.3565 8.92824 19.1099 8.43507C18.8633 7.94189 19.0632 7.34219 19.5564 7.0956L20.5548 6.59641C21.048 6.34982 21.6478 6.54972 21.8944 7.0429Z" fill="black" stroke="none"/>
<path d="M17.2144 6.78343C17.6043 7.17332 17.6043 7.80546 17.2144 8.19535L16.216 9.19373C15.8261 9.58362 15.1939 9.58362 14.804 9.19373C14.4141 8.80384 14.4141 8.1717 14.804 7.78181L15.8024 6.78343C16.1923 6.39353 16.8245 6.39353 17.2144 6.78343Z" fill="black" stroke="none"/>
<path d="M17.0085 10.9416C17.0318 10.3907 17.4973 9.96294 18.0482 9.98623L18.0494 9.98628L18.0509 9.98634L18.0547 9.98652C18.2401 9.99561 18.425 10.0152 18.6088 10.0398C18.9248 10.0821 19.3616 10.1596 19.808 10.3024C20.2301 10.4375 20.668 10.6538 20.9743 10.8176C21.1602 10.9169 21.344 11.0207 21.5235 11.1311L21.5265 11.133L21.5276 11.1336C21.9959 11.4247 22.1404 12.0407 21.8494 12.509C21.5584 12.9772 20.9431 13.121 20.4748 12.8304C20.3304 12.7415 20.1823 12.6584 20.0328 12.5785C19.7578 12.4314 19.4468 12.2833 19.1994 12.2042C18.9031 12.1093 18.591 12.052 18.3439 12.0189C18.2177 12.002 18.0909 11.9884 17.9638 11.9812L17.9623 11.9811C17.4123 11.9568 16.9853 11.4918 17.0085 10.9416Z" fill="black" stroke="none"/>
<path d="M6.55063 7.12548C7.04935 5.7519 8.80625 5.36167 9.8396 6.39498L17.6055 14.1605C18.6389 15.1938 18.2486 16.9507 16.875 17.4493L4.68249 21.8757C3.08955 22.454 1.54573 20.9103 2.12406 19.3174L6.55063 7.12548Z" fill="black" stroke="none"/>
  </g>
  <g id="Heavy-S" transform="matrix(2.935792 0 0 2.935792 2601.461 625.541)">
   <path d="M13.8441 1.01419C14.3877 0.921285 14.9036 1.28657 14.9965 1.83008L14.9968 1.8315L14.9971 1.83331C15.0382 2.07975 15.0611 2.32978 15.0756 2.57898C15.1002 2.99932 15.1033 3.58736 14.9941 4.17685C14.8666 4.8654 14.5471 5.48501 14.2939 5.90029C14.1628 6.11527 14.0388 6.29272 13.9463 6.41797C13.8933 6.48972 13.8392 6.56071 13.7822 6.62941L13.7808 6.63118L13.7796 6.63259C13.4257 7.05543 12.796 7.11132 12.3731 6.75744C11.951 6.40413 11.8946 5.77595 12.2465 5.35313L12.2489 5.35024C12.3731 5.19512 12.4856 5.03037 12.589 4.86078C12.7872 4.53575 12.967 4.15698 13.0306 3.81326C13.0989 3.44432 13.102 3.03398 13.0822 2.69555C13.0719 2.51919 13.0553 2.34288 13.0285 2.16822L13.0281 2.16573L13.0279 2.1646C12.9362 1.6218 13.3012 1.10699 13.8441 1.01419Z" fill="black" stroke="none"/>
<path d="M19.0931 2.5565C19.6119 2.74327 19.8811 3.31524 19.6943 3.83404L19.245 5.08201C19.0582 5.60081 18.4862 5.86997 17.9674 5.6832C17.4486 5.49644 17.1794 4.92447 17.3662 4.40567L17.8155 3.1577C18.0023 2.6389 18.5743 2.36974 19.0931 2.5565Z" fill="black" stroke="none"/>
<path d="M21.8944 7.0429C22.141 7.53608 21.9411 8.13578 21.4479 8.38236L20.4494 8.88155C19.9562 9.12814 19.3565 8.92824 19.1099 8.43507C18.8633 7.94189 19.0632 7.34219 19.5564 7.0956L20.5548 6.59641C21.048 6.34982 21.6478 6.54972 21.8944 7.0429Z" fill="black" stroke="none"/>
<path d="M17.2144 6.78343C17.6043 7.17332 17.6043 7.80546 17.2144 8.19535L16.216 9.19373C15.8261 9.58362 15.1939 9.58362 14.804 9.19373C14.4141 8.80384 14.4141 8.1717 14.804 7.78181L15.8024 6.78343C16.1923 6.39353 16.8245 6.39353 17.2144 6.78343Z" fill="black" stroke="none"/>
<path d="M17.0085 10.9416C17.0318 10.3907 17.4973 9.96294 18.0482 9.98623L18.0494 9.98628L18.0509 9.98634L18.0547 9.98652C18.2401 9.99561 18.425 10.0152 18.6088 10.0398C18.9248 10.0821 19.3616 10.1596 19.808 10.3024C20.2301 10.4375 20.668 10.6538 20.9743 10.8176C21.1602 10.9169 21.344 11.0207 21.5235 11.1311L21.5265 11.133L21.5276 11.1336C21.9959 11.4247 22.1404 12.0407 21.8494 12.509C21.5584 12.9772 20.9431 13.121 20.4748 12.8304C20.3304 12.7415 20.1823 12.6584 20.0328 12.5785C19.7578 12.4314 19.4468 12.2833 19.1994 12.2042C18.9031 12.1093 18.591 12.052 18.3439 12.0189C18.2177 12.002 18.0909 11.9884 17.9638 11.9812L17.9623 11.9811C17.4123 11.9568 16.9853 11.4918 17.0085 10.9416Z" fill="black" stroke="none"/>
<path d="M6.55063 7.12548C7.04935 5.7519 8.80625 5.36167 9.8396 6.39498L17.6055 14.1605C18.6389 15.1938 18.2486 16.9507 16.875 17.4493L4.68249 21.8757C3.08955 22.454 1.54573 20.9103 2.12406 19.3174L6.55063 7.12548Z" fill="black" stroke="none"/>
  </g>
  <g id="Heavy-M" transform="matrix(2.935833 0 0 2.935833 2601.460 1055.540)">
   <path d="M13.8441 1.01419C14.3877 0.921285 14.9036 1.28657 14.9965 1.83008L14.9968 1.8315L14.9971 1.83331C15.0382 2.07975 15.0611 2.32978 15.0756 2.57898C15.1002 2.99932 15.1033 3.58736 14.9941 4.17685C14.8666 4.8654 14.5471 5.48501 14.2939 5.90029C14.1628 6.11527 14.0388 6.29272 13.9463 6.41797C13.8933 6.48972 13.8392 6.56071 13.7822 6.62941L13.7808 6.63118L13.7796 6.63259C13.4257 7.05543 12.796 7.11132 12.3731 6.75744C11.951 6.40413 11.8946 5.77595 12.2465 5.35313L12.2489 5.35024C12.3731 5.19512 12.4856 5.03037 12.589 4.86078C12.7872 4.53575 12.967 4.15698 13.0306 3.81326C13.0989 3.44432 13.102 3.03398 13.0822 2.69555C13.0719 2.51919 13.0553 2.34288 13.0285 2.16822L13.0281 2.16573L13.0279 2.1646C12.9362 1.6218 13.3012 1.10699 13.8441 1.01419Z" fill="black" stroke="none"/>
<path d="M19.0931 2.5565C19.6119 2.74327 19.8811 3.31524 19.6943 3.83404L19.245 5.08201C19.0582 5.60081 18.4862 5.86997 17.9674 5.6832C17.4486 5.49644 17.1794 4.92447 17.3662 4.40567L17.8155 3.1577C18.0023 2.6389 18.5743 2.36974 19.0931 2.5565Z" fill="black" stroke="none"/>
<path d="M21.8944 7.0429C22.141 7.53608 21.9411 8.13578 21.4479 8.38236L20.4494 8.88155C19.9562 9.12814 19.3565 8.92824 19.1099 8.43507C18.8633 7.94189 19.0632 7.34219 19.5564 7.0956L20.5548 6.59641C21.048 6.34982 21.6478 6.54972 21.8944 7.0429Z" fill="black" stroke="none"/>
<path d="M17.2144 6.78343C17.6043 7.17332 17.6043 7.80546 17.2144 8.19535L16.216 9.19373C15.8261 9.58362 15.1939 9.58362 14.804 9.19373C14.4141 8.80384 14.4141 8.1717 14.804 7.78181L15.8024 6.78343C16.1923 6.39353 16.8245 6.39353 17.2144 6.78343Z" fill="black" stroke="none"/>
<path d="M17.0085 10.9416C17.0318 10.3907 17.4973 9.96294 18.0482 9.98623L18.0494 9.98628L18.0509 9.98634L18.0547 9.98652C18.2401 9.99561 18.425 10.0152 18.6088 10.0398C18.9248 10.0821 19.3616 10.1596 19.808 10.3024C20.2301 10.4375 20.668 10.6538 20.9743 10.8176C21.1602 10.9169 21.344 11.0207 21.5235 11.1311L21.5265 11.133L21.5276 11.1336C21.9959 11.4247 22.1404 12.0407 21.8494 12.509C21.5584 12.9772 20.9431 13.121 20.4748 12.8304C20.3304 12.7415 20.1823 12.6584 20.0328 12.5785C19.7578 12.4314 19.4468 12.2833 19.1994 12.2042C18.9031 12.1093 18.591 12.052 18.3439 12.0189C18.2177 12.002 18.0909 11.9884 17.9638 11.9812L17.9623 11.9811C17.4123 11.9568 16.9853 11.4918 17.0085 10.9416Z" fill="black" stroke="none"/>
<path d="M6.55063 7.12548C7.04935 5.7519 8.80625 5.36167 9.8396 6.39498L17.6055 14.1605C18.6389 15.1938 18.2486 16.9507 16.875 17.4493L4.68249 21.8757C3.08955 22.454 1.54573 20.9103 2.12406 19.3174L6.55063 7.12548Z" fill="black" stroke="none"/>
  </g>
  <g id="Heavy-L" transform="matrix(2.935833 0 0 2.935833 2601.460 1485.540)">
   <path d="M13.8441 1.01419C14.3877 0.921285 14.9036 1.28657 14.9965 1.83008L14.9968 1.8315L14.9971 1.83331C15.0382 2.07975 15.0611 2.32978 15.0756 2.57898C15.1002 2.99932 15.1033 3.58736 14.9941 4.17685C14.8666 4.8654 14.5471 5.48501 14.2939 5.90029C14.1628 6.11527 14.0388 6.29272 13.9463 6.41797C13.8933 6.48972 13.8392 6.56071 13.7822 6.62941L13.7808 6.63118L13.7796 6.63259C13.4257 7.05543 12.796 7.11132 12.3731 6.75744C11.951 6.40413 11.8946 5.77595 12.2465 5.35313L12.2489 5.35024C12.3731 5.19512 12.4856 5.03037 12.589 4.86078C12.7872 4.53575 12.967 4.15698 13.0306 3.81326C13.0989 3.44432 13.102 3.03398 13.0822 2.69555C13.0719 2.51919 13.0553 2.34288 13.0285 2.16822L13.0281 2.16573L13.0279 2.1646C12.9362 1.6218 13.3012 1.10699 13.8441 1.01419Z" fill="black" stroke="none"/>
<path d="M19.0931 2.5565C19.6119 2.74327 19.8811 3.31524 19.6943 3.83404L19.245 5.08201C19.0582 5.60081 18.4862 5.86997 17.9674 5.6832C17.4486 5.49644 17.1794 4.92447 17.3662 4.40567L17.8155 3.1577C18.0023 2.6389 18.5743 2.36974 19.0931 2.5565Z" fill="black" stroke="none"/>
<path d="M21.8944 7.0429C22.141 7.53608 21.9411 8.13578 21.4479 8.38236L20.4494 8.88155C19.9562 9.12814 19.3565 8.92824 19.1099 8.43507C18.8633 7.94189 19.0632 7.34219 19.5564 7.0956L20.5548 6.59641C21.048 6.34982 21.6478 6.54972 21.8944 7.0429Z" fill="black" stroke="none"/>
<path d="M17.2144 6.78343C17.6043 7.17332 17.6043 7.80546 17.2144 8.19535L16.216 9.19373C15.8261 9.58362 15.1939 9.58362 14.804 9.19373C14.4141 8.80384 14.4141 8.1717 14.804 7.78181L15.8024 6.78343C16.1923 6.39353 16.8245 6.39353 17.2144 6.78343Z" fill="black" stroke="none"/>
<path d="M17.0085 10.9416C17.0318 10.3907 17.4973 9.96294 18.0482 9.98623L18.0494 9.98628L18.0509 9.98634L18.0547 9.98652C18.2401 9.99561 18.425 10.0152 18.6088 10.0398C18.9248 10.0821 19.3616 10.1596 19.808 10.3024C20.2301 10.4375 20.668 10.6538 20.9743 10.8176C21.1602 10.9169 21.344 11.0207 21.5235 11.1311L21.5265 11.133L21.5276 11.1336C21.9959 11.4247 22.1404 12.0407 21.8494 12.509C21.5584 12.9772 20.9431 13.121 20.4748 12.8304C20.3304 12.7415 20.1823 12.6584 20.0328 12.5785C19.7578 12.4314 19.4468 12.2833 19.1994 12.2042C18.9031 12.1093 18.591 12.052 18.3439 12.0189C18.2177 12.002 18.0909 11.9884 17.9638 11.9812L17.9623 11.9811C17.4123 11.9568 16.9853 11.4918 17.0085 10.9416Z" fill="black" stroke="none"/>
<path d="M6.55063 7.12548C7.04935 5.7519 8.80625 5.36167 9.8396 6.39498L17.6055 14.1605C18.6389 15.1938 18.2486 16.9507 16.875 17.4493L4.68249 21.8757C3.08955 22.454 1.54573 20.9103 2.12406 19.3174L6.55063 7.12548Z" fill="black" stroke="none"/>
  </g>
  <g id="Black-S" transform="matrix(2.935792 0 0 2.935792 2898.171 625.541)">
   <path d="M13.8441 1.01419C14.3877 0.921285 14.9036 1.28657 14.9965 1.83008L14.9968 1.8315L14.9971 1.83331C15.0382 2.07975 15.0611 2.32978 15.0756 2.57898C15.1002 2.99932 15.1033 3.58736 14.9941 4.17685C14.8666 4.8654 14.5471 5.48501 14.2939 5.90029C14.1628 6.11527 14.0388 6.29272 13.9463 6.41797C13.8933 6.48972 13.8392 6.56071 13.7822 6.62941L13.7808 6.63118L13.7796 6.63259C13.4257 7.05543 12.796 7.11132 12.3731 6.75744C11.951 6.40413 11.8946 5.77595 12.2465 5.35313L12.2489 5.35024C12.3731 5.19512 12.4856 5.03037 12.589 4.86078C12.7872 4.53575 12.967 4.15698 13.0306 3.81326C13.0989 3.44432 13.102 3.03398 13.0822 2.69555C13.0719 2.51919 13.0553 2.34288 13.0285 2.16822L13.0281 2.16573L13.0279 2.1646C12.9362 1.6218 13.3012 1.10699 13.8441 1.01419Z" fill="black" stroke="none"/>
<path d="M19.0931 2.5565C19.6119 2.74327 19.8811 3.31524 19.6943 3.83404L19.245 5.08201C19.0582 5.60081 18.4862 5.86997 17.9674 5.6832C17.4486 5.49644 17.1794 4.92447 17.3662 4.40567L17.8155 3.1577C18.0023 2.6389 18.5743 2.36974 19.0931 2.5565Z" fill="black" stroke="none"/>
<path d="M21.8944 7.0429C22.141 7.53608 21.9411 8.13578 21.4479 8.38236L20.4494 8.88155C19.9562 9.12814 19.3565 8.92824 19.1099 8.43507C18.8633 7.94189 19.0632 7.34219 19.5564 7.0956L20.5548 6.59641C21.048 6.34982 21.6478 6.54972 21.8944 7.0429Z" fill="black" stroke="none"/>
<path d="M17.2144 6.78343C17.6043 7.17332 17.6043 7.80546 17.2144 8.19535L16.216 9.19373C15.8261 9.58362 15.1939 9.58362 14.804 9.19373C14.4141 8.80384 14.4141 8.1717 14.804 7.78181L15.8024 6.78343C16.1923 6.39353 16.8245 6.39353 17.2144 6.78343Z" fill="black" stroke="none"/>
<path d="M17.0085 10.9416C17.0318 10.3907 17.4973 9.96294 18.0482 9.98623L18.0494 9.98628L18.0509 9.98634L18.0547 9.98652C18.2401 9.99561 18.425 10.0152 18.6088 10.0398C18.9248 10.0821 19.3616 10.1596 19.808 10.3024C20.2301 10.4375 20.668 10.6538 20.9743 10.8176C21.1602 10.9169 21.344 11.0207 21.5235 11.1311L21.5265 11.133L21.5276 11.1336C21.9959 11.4247 22.1404 12.0407 21.8494 12.509C21.5584 12.9772 20.9431 13.121 20.4748 12.8304C20.3304 12.7415 20.1823 12.6584 20.0328 12.5785C19.7578 12.4314 19.4468 12.2833 19.1994 12.2042C18.9031 12.1093 18.591 12.052 18.3439 12.0189C18.2177 12.002 18.0909 11.9884 17.9638 11.9812L17.9623 11.9811C17.4123 11.9568 16.9853 11.4918 17.0085 10.9416Z" fill="black" stroke="none"/>
<path d="M6.55063 7.12548C7.04935 5.7519 8.80625 5.36167 9.8396 6.39498L17.6055 14.1605C18.6389 15.1938 18.2486 16.9507 16.875 17.4493L4.68249 21.8757C3.08955 22.454 1.54573 20.9103 2.12406 19.3174L6.55063 7.12548Z" fill="black" stroke="none"/>
  </g>
  <g id="Black-M" transform="matrix(2.935833 0 0 2.935833 2898.170 1055.540)">
   <path d="M13.8441 1.01419C14.3877 0.921285 14.9036 1.28657 14.9965 1.83008L14.9968 1.8315L14.9971 1.83331C15.0382 2.07975 15.0611 2.32978 15.0756 2.57898C15.1002 2.99932 15.1033 3.58736 14.9941 4.17685C14.8666 4.8654 14.5471 5.48501 14.2939 5.90029C14.1628 6.11527 14.0388 6.29272 13.9463 6.41797C13.8933 6.48972 13.8392 6.56071 13.7822 6.62941L13.7808 6.63118L13.7796 6.63259C13.4257 7.05543 12.796 7.11132 12.3731 6.75744C11.951 6.40413 11.8946 5.77595 12.2465 5.35313L12.2489 5.35024C12.3731 5.19512 12.4856 5.03037 12.589 4.86078C12.7872 4.53575 12.967 4.15698 13.0306 3.81326C13.0989 3.44432 13.102 3.03398 13.0822 2.69555C13.0719 2.51919 13.0553 2.34288 13.0285 2.16822L13.0281 2.16573L13.0279 2.1646C12.9362 1.6218 13.3012 1.10699 13.8441 1.01419Z" fill="black" stroke="none"/>
<path d="M19.0931 2.5565C19.6119 2.74327 19.8811 3.31524 19.6943 3.83404L19.245 5.08201C19.0582 5.60081 18.4862 5.86997 17.9674 5.6832C17.4486 5.49644 17.1794 4.92447 17.3662 4.40567L17.8155 3.1577C18.0023 2.6389 18.5743 2.36974 19.0931 2.5565Z" fill="black" stroke="none"/>
<path d="M21.8944 7.0429C22.141 7.53608 21.9411 8.13578 21.4479 8.38236L20.4494 8.88155C19.9562 9.12814 19.3565 8.92824 19.1099 8.43507C18.8633 7.94189 19.0632 7.34219 19.5564 7.0956L20.5548 6.59641C21.048 6.34982 21.6478 6.54972 21.8944 7.0429Z" fill="black" stroke="none"/>
<path d="M17.2144 6.78343C17.6043 7.17332 17.6043 7.80546 17.2144 8.19535L16.216 9.19373C15.8261 9.58362 15.1939 9.58362 14.804 9.19373C14.4141 8.80384 14.4141 8.1717 14.804 7.78181L15.8024 6.78343C16.1923 6.39353 16.8245 6.39353 17.2144 6.78343Z" fill="black" stroke="none"/>
<path d="M17.0085 10.9416C17.0318 10.3907 17.4973 9.96294 18.0482 9.98623L18.0494 9.98628L18.0509 9.98634L18.0547 9.98652C18.2401 9.99561 18.425 10.0152 18.6088 10.0398C18.9248 10.0821 19.3616 10.1596 19.808 10.3024C20.2301 10.4375 20.668 10.6538 20.9743 10.8176C21.1602 10.9169 21.344 11.0207 21.5235 11.1311L21.5265 11.133L21.5276 11.1336C21.9959 11.4247 22.1404 12.0407 21.8494 12.509C21.5584 12.9772 20.9431 13.121 20.4748 12.8304C20.3304 12.7415 20.1823 12.6584 20.0328 12.5785C19.7578 12.4314 19.4468 12.2833 19.1994 12.2042C18.9031 12.1093 18.591 12.052 18.3439 12.0189C18.2177 12.002 18.0909 11.9884 17.9638 11.9812L17.9623 11.9811C17.4123 11.9568 16.9853 11.4918 17.0085 10.9416Z" fill="black" stroke="none"/>
<path d="M6.55063 7.12548C7.04935 5.7519 8.80625 5.36167 9.8396 6.39498L17.6055 14.1605C18.6389 15.1938 18.2486 16.9507 16.875 17.4493L4.68249 21.8757C3.08955 22.454 1.54573 20.9103 2.12406 19.3174L6.55063 7.12548Z" fill="black" stroke="none"/>
  </g>
  <g id="Black-L" transform="matrix(2.935833 0 0 2.935833 2898.170 1485.540)">
   <path d="M13.8441 1.01419C14.3877 0.921285 14.9036 1.28657 14.9965 1.83008L14.9968 1.8315L14.9971 1.83331C15.0382 2.07975 15.0611 2.32978 15.0756 2.57898C15.1002 2.99932 15.1033 3.58736 14.9941 4.17685C14.8666 4.8654 14.5471 5.48501 14.2939 5.90029C14.1628 6.11527 14.0388 6.29272 13.9463 6.41797C13.8933 6.48972 13.8392 6.56071 13.7822 6.62941L13.7808 6.63118L13.7796 6.63259C13.4257 7.05543 12.796 7.11132 12.3731 6.75744C11.951 6.40413 11.8946 5.77595 12.2465 5.35313L12.2489 5.35024C12.3731 5.19512 12.4856 5.03037 12.589 4.86078C12.7872 4.53575 12.967 4.15698 13.0306 3.81326C13.0989 3.44432 13.102 3.03398 13.0822 2.69555C13.0719 2.51919 13.0553 2.34288 13.0285 2.16822L13.0281 2.16573L13.0279 2.1646C12.9362 1.6218 13.3012 1.10699 13.8441 1.01419Z" fill="black" stroke="none"/>
<path d="M19.0931 2.5565C19.6119 2.74327 19.8811 3.31524 19.6943 3.83404L19.245 5.08201C19.0582 5.60081 18.4862 5.86997 17.9674 5.6832C17.4486 5.49644 17.1794 4.92447 17.3662 4.40567L17.8155 3.1577C18.0023 2.6389 18.5743 2.36974 19.0931 2.5565Z" fill="black" stroke="none"/>
<path d="M21.8944 7.0429C22.141 7.53608 21.9411 8.13578 21.4479 8.38236L20.4494 8.88155C19.9562 9.12814 19.3565 8.92824 19.1099 8.43507C18.8633 7.94189 19.0632 7.34219 19.5564 7.0956L20.5548 6.59641C21.048 6.34982 21.6478 6.54972 21.8944 7.0429Z" fill="black" stroke="none"/>
<path d="M17.2144 6.78343C17.6043 7.17332 17.6043 7.80546 17.2144 8.19535L16.216 9.19373C15.8261 9.58362 15.1939 9.58362 14.804 9.19373C14.4141 8.80384 14.4141 8.1717 14.804 7.78181L15.8024 6.78343C16.1923 6.39353 16.8245 6.39353 17.2144 6.78343Z" fill="black" stroke="none"/>
<path d="M17.0085 10.9416C17.0318 10.3907 17.4973 9.96294 18.0482 9.98623L18.0494 9.98628L18.0509 9.98634L18.0547 9.98652C18.2401 9.99561 18.425 10.0152 18.6088 10.0398C18.9248 10.0821 19.3616 10.1596 19.808 10.3024C20.2301 10.4375 20.668 10.6538 20.9743 10.8176C21.1602 10.9169 21.344 11.0207 21.5235 11.1311L21.5265 11.133L21.5276 11.1336C21.9959 11.4247 22.1404 12.0407 21.8494 12.509C21.5584 12.9772 20.9431 13.121 20.4748 12.8304C20.3304 12.7415 20.1823 12.6584 20.0328 12.5785C19.7578 12.4314 19.4468 12.2833 19.1994 12.2042C18.9031 12.1093 18.591 12.052 18.3439 12.0189C18.2177 12.002 18.0909 11.9884 17.9638 11.9812L17.9623 11.9811C17.4123 11.9568 16.9853 11.4918 17.0085 10.9416Z" fill="black" stroke="none"/>
<path d="M6.55063 7.12548C7.04935 5.7519 8.80625 5.36167 9.8396 6.39498L17.6055 14.1605C18.6389 15.1938 18.2486 16.9507 16.875 17.4493L4.68249 21.8757C3.08955 22.454 1.54573 20.9103 2.12406 19.3174L6.55063 7.12548Z" fill="black" stroke="none"/>
  </g>
 </g>
</svg>
